<?xml version="1.0" standalone="no"?><!DOCTYPE svg PUBLIC "-//W3C//DTD SVG 1.1//EN" "http://www.w3.org/Graphics/SVG/1.1/DTD/svg11.dtd"><svg t="1562305925404" class="icon" viewBox="0 0 1024 1024" version="1.1" xmlns="http://www.w3.org/2000/svg" p-id="3583" width="64" height="64" xmlns:xlink="http://www.w3.org/1999/xlink"><defs><style type="text/css"></style></defs><path d="M416.1536 0h6.9632c-0.6144 2.8672-2.2528 8.8064-3.072 11.6736 155.2384 87.4496 235.1104 257.6384 294.912 417.5872 50.7904-56.32 47.7184-138.24 23.3472-205.4144 104.0384 81.3056 185.344 201.1136 203.776 333.6192v105.0624C921.3952 824.9344 803.4304 956.2112 658.8416 1024h-14.5408c55.296-99.5328 75.9808-216.8832 66.56-329.728-10.8544-113.8688-86.4256-212.7872-182.4768-270.9504 27.0336 106.0864-23.552 216.6784-109.1584 280.3712 3.6864-44.8512 11.8784-101.1712-29.4912-132.3008-11.0592 91.5456-60.2112 170.3936-103.424 249.6512-37.888 66.3552-18.0224 152.3712 37.0688 202.9568H307.2c-111.0016-50.7904-201.5232-149.504-225.28-271.36v-73.5232c31.5392-117.1456 117.5552-213.8112 131.8912-337.7152 29.0816 46.4896 45.4656 98.9184 45.056 154.0096C398.336 373.76 441.5488 177.3568 416.1536 0z" p-id="3584" fill="#999999"></path></svg>