<?xml version="1.0" encoding="utf-8"?>
<!-- Generator: Adobe Illustrator 23.0.0, SVG Export Plug-In . SVG Version: 6.00 Build 0)  -->
<svg version="1.1" id="图层_1" xmlns="http://www.w3.org/2000/svg" xmlns:xlink="http://www.w3.org/1999/xlink" x="0px" y="0px"
	 viewBox="0 0 1024 1024" style="enable-background:new 0 0 1024 1024;" xml:space="preserve">
<style type="text/css">
	.st0{fill:none;}
	.st1{fill:#FAD97F;}
	.st2{fill:#E23A56;}
</style>
<circle class="st0" cx="510.7" cy="511.1" r="448.5"/>
<ellipse class="st0" cx="193.8" cy="568.7" rx="4.5" ry="4.5"/>
<ellipse transform="matrix(0.7071 -0.7071 0.7071 0.7071 -19.512 793.0251)" class="st0" cx="947.5" cy="420.1" rx="4.6" ry="4.6"/>
<ellipse transform="matrix(0.7071 -0.7071 0.7071 0.7071 -19.512 793.0251)" class="st0" cx="947.5" cy="420.1" rx="4.6" ry="4.6"/>
<ellipse transform="matrix(0.7071 -0.7071 0.7071 0.7071 -19.512 793.0251)" class="st0" cx="947.5" cy="420.1" rx="4.6" ry="4.6"/>
<path class="st0" d="M545.1,502.9c1.6-3.5,2.7-5.8,2.7-5.9l1.6-3.4h-0.5L545.1,502.9z"/>
<ellipse transform="matrix(0.7071 -0.7071 0.7071 0.7071 -19.512 793.0251)" class="st0" cx="947.5" cy="420.1" rx="4.6" ry="4.6"/>
<g>
	<path class="st1" d="M1024,502.8c0-241.1-176.9-441-408.1-476.7c26.2,6.3,51.8,14.8,76.9,25.3c59.3,25.1,112.8,61,158.5,106.8
		c45.8,45.8,81.8,99.1,106.8,158.5c26,61.6,39.2,126.9,39.2,194.3s-13.2,132.6-39.2,194.1c-25.1,59.3-61,112.8-106.8,158.5
		c-20.5,20.5-42.4,38.9-65.6,55.3C928.3,835.3,1024,680.2,1024,502.8z"/>
	<path class="st1" d="M961,511c0-254.9-207.5-462.4-462.4-462.4c-100.6,0-195.2,32.8-272.4,89.1c-102.2,88.4-167,219.2-167,365
		c0,211.5,136,391.1,325.4,456.2c36.7,9.4,75,14.4,114,14.4C753.7,973.4,961,766,961,511z M420.6,740.4l-36.7-139.3
		c-10.9,17.6-23.6,33.8-36.6,49.1c-7.3-6.8-24.6-20.1-34.8-25.7c36.5-37.2,63.7-83.3,81.4-134.7l-94.7,24.9l-9.3-35.6l115.8-30.5
		c1.3-7.3,2.7-14.4,3.8-22l-34.8,9.2l-8.6-32.6l-92.5,24.5l-9.3-35.1l92.5-24.5l-7.6-29.2l39-10.3l7.6,29.2l117.5-31l-7.8-29.6
		l38.6-10.2l7.8,29.6l91.7-24.2l9.3,35.1l-91.7,24.2l8.5,32.1L531.1,394l-8.5-32.1l-117.5,31l5.9,22.8l1.2-10.9l40.3-0.1
		c-1.1,11.3-2.9,21.9-4.6,32.8l214.7-56.7l9.3,35.6l-234,61.8c-7,25.7-16.1,50.1-26.9,73.5l47.1,178.8L420.6,740.4z M451.3,597.5
		l113.6-29.9l-6.8-25.7c13.1-11.3,26.9-24.9,38.6-39.5L469.3,536l-8.2-31.2l165.4-43.6l6.7-4.1l28.7,13.1
		c-15.9,24.8-38.6,51.8-62.5,74.2l3.5,13.3l105.9-28l9,33.9l-105.9,27.9l13.8,52.3c4.8,18.4,3.9,28.8-8.7,38
		c-12.8,8.8-33.3,14.8-63.7,22.8c-4.8-9.7-14.2-22.4-21.8-30.5c22-5,44-10.7,49.4-12.6c6.3-2.2,7.8-3.4,6.3-9l-13.4-51l-113.6,29.9
		L451.3,597.5z"/>
	<path d="M958.2,705.2c26-61.5,39.2-126.8,39.2-194.1s-13.2-132.6-39.2-194.1c-25.1-59.3-61-112.8-106.8-158.5
		c-45.8-45.8-99.1-81.8-158.5-106.8c-25.1-10.5-50.7-19-76.9-25.3c-38.2-9.2-77.3-13.8-117.2-13.8c-59,0-116.6,10.2-171.6,30.3
		c-53,19.4-102.1,47.6-145.8,83.7C93.5,198.9,32.7,300.1,10.1,411l35.6,7.3c23.6-115.7,90-214.2,180.7-280.4
		c77.1-56.3,171.7-89.1,272.4-89.1c254.9,0,462.4,207.5,462.4,462.4S753.7,973.4,498.6,973.4c-39.1,0-77.3-5-114-14.4
		C227.2,918.7,98.2,796.9,53.3,635.7l-35,9.8c14.5,52,37.3,100.9,67.6,145.6c29.9,44.1,66.5,82.8,108.8,115.4
		c42.6,32.8,90,58.4,140.7,75.9c52.4,18.2,107.4,27.4,163.4,27.4c67.3,0,132.6-13.2,194.1-39.2c32.9-13.9,63.9-31.1,92.9-51.6
		c23.3-16.5,45.3-34.9,65.6-55.3C897.1,817.9,933,764.5,958.2,705.2z"/>
	<path d="M36.3,511c0-10.7,0.4-21.3,1.1-32l-36.2-2.4C0.5,488,0,499.5,0,511c0,20.5,1.2,41.1,3.8,61.2l36.1-4.4
		C37.4,549.2,36.3,530.1,36.3,511z"/>
	<path class="st2" d="M438.1,478.2l234-61.8l-9.3-35.6L448,437.5c1.7-11,3.5-21.6,4.6-32.8l-40.3,0.1l-1.2,10.9l-5.9-22.8l117.5-31
		l8.5,32.1l38.6-10.2l-8.5-32.1l91.7-24.2l-9.3-35.1l-91.7,24.2l-7.8-29.6l-38.6,10.2l7.8,29.6l-117.5,31l-7.6-29.2l-39,10.3
		l7.6,29.2l-92.5,24.5l9.3,35.1l92.5-24.5l8.6,32.6l34.8-9.2c-1.2,7.6-2.5,14.9-3.8,22l-115.8,30.5l9.3,35.6l94.7-24.9
		c-17.6,51.4-44.8,97.6-81.4,134.7c10.2,5.6,27.5,18.9,34.8,25.7c13-15.4,25.6-31.5,36.6-49.1l36.7,139.3l37.7-9.9l-47.1-178.8
		C422,528.2,431,503.9,438.1,478.2z"/>
	<path class="st2" d="M587.1,652.5c1.5,5.6,0,6.9-6.3,9c-5.5,1.9-27.4,7.6-49.4,12.6c7.6,8.1,17,20.7,21.8,30.5
		c30.4-8,50.9-13.9,63.7-22.8c12.7-9.3,13.6-19.6,8.7-38l-13.8-52.3l105.9-28l-9-33.9l-105.7,28l-3.5-13.3
		c23.9-22.4,46.5-49.4,62.5-74.2l-28.7-13.1l-6.7,4.1l-165.4,43.6l8.2,31.2l127.3-33.5c-11.7,14.5-25.6,28.3-38.6,39.5l6.8,25.7
		l-113.6,30l9,33.9l113.6-29.9L587.1,652.5z"/>
</g>
</svg>
