<?xml version="1.0" standalone="no"?><!DOCTYPE svg PUBLIC "-//W3C//DTD SVG 1.1//EN" "http://www.w3.org/Graphics/SVG/1.1/DTD/svg11.dtd"><svg t="1528112620270" class="icon" style="" viewBox="0 0 1024 1024" version="1.1" xmlns="http://www.w3.org/2000/svg" p-id="33619" xmlns:xlink="http://www.w3.org/1999/xlink" width="32" height="32"><defs><style type="text/css"></style></defs><path d="M959.535581 622.771932c6.321137-4.873256 10.641621-12.139845 10.641621-20.660995l0-0.567875c0-0.061419 0-0.118811 0-0.177209l0-291.37843c0-0.058399 0-0.087598 0-0.145996l0-0.570896c0-8.517123-4.320484-15.782705-10.641621-20.627768L802.307623 133.418477c-4.933668-6.219443-12.272752-10.463405-20.91372-10.463405l-0.567875 0c-0.062426 0-0.104715 0-0.163113 0L651.81966 122.955072c3.109218-21.824938 12.302958-40.362442 25.205004-52.125717 7.038029-5.545846 11.897189-13.977385 11.897189-23.963532 0-16.802665-12.928225-30.420597-28.895187-30.420597-7.982474 0-15.203754 3.408259-20.436463 8.909802l-0.447051-0.463161c-24.919053 22.975792-41.452884 58.044106-45.037345 98.063205L485.459381 122.955072c-0.061419 0-0.118811 0-0.18023 0l-0.553779 0c-8.639961 0-15.992134 4.243962-20.927816 10.463405L65.872025 523.406843c-1.286781 0.898129-2.735669 1.436805-3.872426 2.573563-5.307218 5.202503-7.756935 12.138838-7.579726 19.012747-0.177209 6.878943 2.272508 13.753859 7.579726 19.014761 1.136757 1.136757 2.585645 1.675434 3.872426 2.514157l452.054922 446.240241c0.883026 1.252548 1.421702 2.69036 2.558459 3.82611 5.320307 5.202503 12.317054 7.653227 19.281582 7.475011 6.951438 0.178216 13.948185-2.272508 19.267486-7.475011 1.135751-1.135751 1.675434-2.573563 2.558459-3.82611L959.535581 622.771932zM539.766988 960.799707l-421.248693-415.807562L494.996464 176.169217 597.256308 176.169217c7.013864 30.377301 21.810842 56.747256 41.887852 75.222334l0.447051-0.477257c0.973644 1.042112 2.33292 1.584815 3.440479 2.449717 13.720633 12.525477 23.185221 32.766606 25.591643 56.384782-57.253712 2.572556-102.995866 48.853386-102.995866 106.015473 0 58.807314 48.299607 106.49273 107.884226 106.49273 59.583612 0 107.882212-47.685416 107.882212-106.49273 0-39.4331-21.973955-73.487495-54.264312-91.904174 0.029199-1.074331 0.315151-2.062072 0.315151-3.168623 0-46.459047-18.431783-87.357144-46.535569-113.245814l-0.448058 0.479271c-0.986734-1.050167-2.33292-1.585822-3.437458-2.453745-8.118402-7.413592-14.830205-17.461159-19.524238-29.300956l113.624398 0 145.119326 143.268697L916.243144 591.976779 539.766988 960.799707zM660.026666 442.371842c7.982474 0 15.202747-3.408259 20.435456-8.908796 0 0 18.385466-9.656901 34.977695-50.825847 7.400503 9.149438 12.005931 20.540171 12.005931 33.125053 0 29.419767-24.144769 53.246365-53.934058 53.246365-29.792309 0-53.934058-23.826598-53.934058-53.246365 0-24.634109 17.053376-45.203478 40.091594-51.242691-4.455405 9.208843-9.940838 17.400747-16.637538 23.497351-7.04105 5.56397-11.899203 13.994502-11.899203 23.949436C631.131479 428.768007 644.063732 442.371842 660.026666 442.371842z" p-id="33620"></path><path d="M543.328291 766.392027c10.285188-10.134158 10.285188-26.608583 0-36.74274L353.244115 542.015835c-10.285188-10.134158-26.967029-10.134158-37.252217 0-10.284182 10.136171-10.284182 26.608583 0 36.743747l190.084176 187.633452C516.359248 776.556391 533.043103 776.556391 543.328291 766.392027z" p-id="33621"></path><path d="M613.959293 659.92749c10.285188 10.136171 26.966022 10.136171 37.253224 0 10.283175-10.134158 10.283175-26.636775 0-36.77194l-190.087197-187.632445c-10.301298-10.135165-26.966022-10.135165-37.250204 0-10.286195 10.164364-10.286195 26.637782 0 36.772947L613.959293 659.92749z" p-id="33622"></path></svg>