<?xml version="1.0" standalone="no"?><!DOCTYPE svg PUBLIC "-//W3C//DTD SVG 1.1//EN" "http://www.w3.org/Graphics/SVG/1.1/DTD/svg11.dtd"><svg t="1571392883620" class="icon" viewBox="0 0 1024 1024" version="1.1" xmlns="http://www.w3.org/2000/svg" p-id="4752" width="32" height="32" xmlns:xlink="http://www.w3.org/1999/xlink"><defs><style type="text/css"></style></defs><path d="M439.552 945.664H189.824a157.632 157.632 0 0 1-157.44-157.44v-629.76a157.632 157.632 0 0 1 157.44-157.44h564.608a157.632 157.632 0 0 1 157.44 157.44v314.88h-78.72v-314.88c0-43.392-35.264-78.72-78.72-78.72H189.824c-43.392 0-78.72 35.328-78.72 78.72v629.76c0 43.456 35.328 78.72 78.72 78.72h249.728v78.72z" p-id="4753" fill="#666666"></path><path d="M189.824 237.12h564.608v78.72H189.824v-78.72z m801.92 730.24l-111.872-111.872c20.032-30.72 32-67.392 32-106.624a197.376 197.376 0 0 0-196.8-196.864 197.376 197.376 0 0 0-196.8 196.864 197.376 197.376 0 0 0 196.8 196.8 195.2 195.2 0 0 0 109.888-33.792l111.168 111.168 55.68-55.68z m-276.672-100.48a118.208 118.208 0 0 1-118.08-118.016c0-65.152 52.928-118.08 118.08-118.08 65.088 0 118.08 52.928 118.08 118.08a118.208 118.208 0 0 1-118.08 118.08z m-525.248-472.32h564.608v78.72H189.824v-78.72z m0 157.44h249.728v78.72H189.824v-78.72z" p-id="4754" fill="#666666"></path></svg>