<?xml version="1.0" standalone="no"?><!DOCTYPE svg PUBLIC "-//W3C//DTD SVG 1.1//EN" "http://www.w3.org/Graphics/SVG/1.1/DTD/svg11.dtd"><svg t="1573095841031" class="icon" viewBox="-64 333 1024 1024" version="1.1" xmlns="http://www.w3.org/2000/svg" p-id="23179" data-spm-anchor-id="a313x.7781069.0.i19" width="40" height="40" xmlns:xlink="http://www.w3.org/1999/xlink"><defs><style type="text/css"></style></defs><path d="M88.869 333.298l13.603 43.53H63.957z" fill="#b5b5b5" p-id="23180" data-spm-anchor-id="a313x.7781069.0.i17" class="selected"></path><path d="M88.813 333.298h871.173v357.404H266.192c-39.081 0-73.627-25.398-85.284-62.7L88.813 333.298z" fill="#b5b5b5" p-id="23181" data-spm-anchor-id="a313x.7781069.0.i14" class="selected"></path><path d="M513.858 461.39v78.839h-58.135v14.639h82.812v18.611h-82.812v30.741h-19.658v-30.741h-83.23v-18.611h83.23v-14.639h-57.926V461.39h135.719z m-115.016-36.179v-14.639h19.03v14.639h23.421v17.775h-23.421v13.175h-19.03v-13.175h-43.706v-17.775h43.706z m96.196 66.919v-13.802H396.96v13.802h98.078z m0 16.521H396.96v14.638h98.078v-14.638z m-1.882-98.078v14.639h43.707v17.775h-43.707v13.175h-19.03v-13.175h-23.631v-17.775h23.631v-14.639h19.03zM565.096 423.957c23.422-2.091 44.124-6.482 62.317-13.174l6.901 18.821c-7.319 2.3-15.057 4.392-23.003 6.273V466.2h23.63v19.03h-23.63v9.41c8.783 8.783 17.356 18.612 26.14 29.277l-10.874 16.521c-5.855-11.083-10.874-20.285-15.266-27.813v90.34h-19.03v-89.713c-6.064 18.611-13.802 35.551-23.213 50.816l-8.573-21.958c13.175-16.729 22.794-35.76 28.858-56.881h-23.84v-19.03h26.768V439.64a388.07 388.07 0 0 1-23.213 3.137l-3.972-18.82z m136.765 3.346h50.607v17.566H637.66v-17.566h44.543c-2.3-5.437-4.81-10.456-7.737-15.057l20.494-3.346c2.3 5.437 4.601 11.502 6.901 18.403z m12.338 175.871l-4.392-16.938 14.011 0.836c4.183 0 6.483-3.137 6.483-9.201V523.29h-73.193v79.467h-18.611V506.56h110.416v75.284c0 14.22-6.691 21.33-19.657 21.33h-15.057z m22.794-148.686v42.034h-85.74v-42.034h85.74z m-17.984 79.885v42.451h-51.234v-42.451h51.234z m-0.837-65.246h-48.098v12.756h48.098v-12.756z m-15.475 79.048h-18.611v14.848h18.611v-14.848z" fill="#FFFFFF" p-id="23182"></path></svg>