<?xml version="1.0" standalone="no"?><!DOCTYPE svg PUBLIC "-//W3C//DTD SVG 1.1//EN" "http://www.w3.org/Graphics/SVG/1.1/DTD/svg11.dtd"><svg t="1532053811021" class="icon" style="" viewBox="0 0 1024 1024" version="1.1" xmlns="http://www.w3.org/2000/svg" p-id="2644" xmlns:xlink="http://www.w3.org/1999/xlink" width="16" height="16"><defs><style type="text/css"></style></defs><path d="M512 1000.727273c269.917091 0 488.727273-218.810182 488.727273-488.727273S781.917091 23.272727 512 23.272727 23.272727 242.082909 23.272727 512 242.082909 1000.727273 512 1000.727273z m0-46.545455a442.181818 442.181818 0 1 1 0-884.363636 442.181818 442.181818 0 0 1 0 884.363636zM520.285091 279.272727c-46.917818 0-83.409455 14.336-109.474909 43.008C384.744727 349.649455 372.363636 386.141091 372.363636 431.755636h51.479273c0-31.930182 7.168-56.692364 21.504-74.938181 15.639273-21.504 39.749818-31.930182 72.331636-31.930182 27.368727 0 48.872727 7.168 63.860364 22.807272 14.336 14.336 22.155636 34.536727 22.155636 60.602182 0 18.245818-6.516364 35.188364-19.54909 51.479273-3.909818 5.213091-11.729455 13.032727-22.155637 23.458909-35.188364 31.278545-56.692364 56.040727-65.815273 75.589818-7.819636 16.290909-11.729455 35.188364-11.729454 56.692364v14.987636h52.130909v-14.987636c0-17.594182 3.909818-33.233455 12.381091-47.569455 6.516364-11.729455 16.290909-23.458909 30.626909-35.84 28.672-25.413818 46.266182-42.356364 52.782545-50.176a122.88 122.88 0 0 0 24.762182-76.241454c0-39.098182-12.381091-69.725091-36.491636-91.880727-25.413818-23.458909-58.647273-34.536727-100.352-34.536728z m-9.774546 396.846546a37.329455 37.329455 0 0 0-28.020363 11.077818c-7.819636 7.168-11.077818 16.290909-11.077818 27.368727s3.258182 20.200727 11.077818 28.020364a39.936 39.936 0 0 0 28.020363 11.077818 39.936 39.936 0 0 0 28.020364-11.077818 35.933091 35.933091 0 0 0 11.729455-28.020364 37.329455 37.329455 0 0 0-11.077819-27.368727 38.772364 38.772364 0 0 0-28.672-11.077818z" p-id="2645" fill="#515151"></path></svg>