<?xml version="1.0" standalone="no"?><!DOCTYPE svg PUBLIC "-//W3C//DTD SVG 1.1//EN" "http://www.w3.org/Graphics/SVG/1.1/DTD/svg11.dtd"><svg t="1529042995467" class="icon" style="" viewBox="0 0 1024 1024" version="1.1" xmlns="http://www.w3.org/2000/svg" p-id="14514" xmlns:xlink="http://www.w3.org/1999/xlink" width="32" height="32"><defs><style type="text/css"></style></defs><path d="M753.322667 85.333333q69.674667 0 128.512 34.346667t93.184 93.184 34.346667 128.512q0 50.005333-19.157333 97.152t-55.850667 83.84l-422.314667 422.314667-422.314667-422.314667q-36.650667-36.650667-55.850667-83.84t-19.157333-97.152q0-69.674667 34.346667-128.512t93.184-93.184 128.512-34.346667q50.346667 0 97.152 18.986667t83.84 56.021333l60.330667 60.330667 60.330667-60.330667q36.650667-36.650667 83.84-55.850667t97.152-19.157333zM753.322667 170.666667q-33.322667 0-64.682667 12.672t-55.978667 37.333333l-120.661333 120.661333-120.661333-120.661333q-24.661333-24.661333-56.021333-37.333333t-64.682667-12.672q-46.677333 0-85.845333 22.826667t-61.994667 61.994667-22.826667 85.845333q0 33.322667 12.672 64.682667t37.333333 56.021333l361.984 361.984 361.984-361.984q24.661333-24.661333 37.333333-56.021333t12.672-64.682667q0-46.677333-22.826667-85.845333t-61.994667-61.994667-85.845333-22.826667z" p-id="14515" fill="#707070"></path></svg>