<?xml version="1.0" standalone="no"?><!DOCTYPE svg PUBLIC "-//W3C//DTD SVG 1.1//EN" "http://www.w3.org/Graphics/SVG/1.1/DTD/svg11.dtd"><svg t="1529631739591" class="icon" style="" viewBox="0 0 1024 1024" version="1.1" xmlns="http://www.w3.org/2000/svg" p-id="2342" xmlns:xlink="http://www.w3.org/1999/xlink" width="64" height="64"><defs><style type="text/css"></style></defs><path d="M460.501333 823.168l30.165334-29.824 30.165333 29.824 30.165333 30.165333-60.330666 60.330667-30.165334-30.165333c-12.458667-12.458667-83.2-81.92-104.106666-102.912-56.832-57.130667-98.986667-103.296-133.845334-148.48C161.28 552.746667 128 482.432 128 416 128 295.936 214.997333 213.333333 330.666667 213.333333c62.933333 0 121.6 28.928 160 78.250667A202.282667 202.282667 0 0 1 650.666667 213.333333C766.336 213.333333 853.333333 295.936 853.333333 416c0 66.432-33.28 136.704-94.549333 216.106667-34.816 45.184-77.013333 91.349333-133.888 148.48-20.864 20.992-91.605333 90.453333-104.064 102.912l-30.165333 30.165333L430.336 853.333333l30.165333-30.165333z m5.930667-53.717333l24.234667 23.893333 24.405333-24.064c25.344-25.002667 41.258667-40.746667 49.365333-48.896 56.746667-57.002667 95.616-100.010667 126.805334-140.373333C744.277333 511.146667 768 458.026667 768 416 768 344.917333 721.066667 298.666667 650.666667 298.666667c-36.394667 0-70.314667 16.64-92.672 45.354666L490.666667 430.506667 423.338667 344.021333A116.949333 116.949333 0 0 0 330.666667 298.666667C260.266667 298.666667 213.333333 344.917333 213.333333 416c0 42.069333 23.722667 95.189333 76.8 163.968 31.146667 40.405333 69.973333 83.413333 126.762667 140.416 8.106667 8.106667 24.021333 23.893333 49.536 49.066667z" fill="#ffffff" p-id="2343"></path></svg>