<?xml version="1.0" standalone="no"?><!DOCTYPE svg PUBLIC "-//W3C//DTD SVG 1.1//EN" "http://www.w3.org/Graphics/SVG/1.1/DTD/svg11.dtd"><svg t="1571307322216" class="icon" viewBox="0 0 1024 1024" version="1.1" xmlns="http://www.w3.org/2000/svg" p-id="2921" xmlns:xlink="http://www.w3.org/1999/xlink" width="48" height="48"><defs><style type="text/css"></style></defs><path d="M774.368 418.576l-20.416 0 0-81.232c0-140.336-108.32-247.152-241.968-247.152-133.632 0-241.952 106.816-241.952 247.152l0 81.232-20.4 0c-45.328 0-82.08 36.672-82.08 81.92l0 347.424c0 45.232 36.752 81.888 82.08 81.888l524.752 0c45.312 0 82.08-36.656 82.08-81.888L856.464 500.496C856.448 455.248 819.68 418.576 774.368 418.576zM339.184 334.944c0-95.424 77.376-172.8 172.8-172.8 95.456 0 172.816 77.376 172.816 172.8l0 83.648L339.184 418.592 339.184 334.944zM546.544 671.84l0 91.184c0 19.088-15.456 34.576-34.56 34.576-19.072 0-34.56-15.488-34.56-34.576L477.424 671.84c-20.608-11.952-34.56-34.24-34.56-59.808 0-38.192 30.96-69.136 69.12-69.136 38.192 0 69.136 30.96 69.136 69.136C581.12 637.616 567.2 659.888 546.544 671.84z" p-id="2922" fill="#8a8a8a"></path></svg>