<?xml version="1.0" standalone="no"?><!DOCTYPE svg PUBLIC "-//W3C//DTD SVG 1.1//EN" "http://www.w3.org/Graphics/SVG/1.1/DTD/svg11.dtd"><svg t="1531212846972" class="icon" style="" viewBox="0 0 1024 1024" version="1.1" xmlns="http://www.w3.org/2000/svg" p-id="13935" xmlns:xlink="http://www.w3.org/1999/xlink" width="32" height="32"><defs><style type="text/css"></style></defs><path d="M990.374 819.726s-95.316 19.115-192.001 39.018c-64.476 71.824-128.671 143.399-128.671 143.399L531.5 766.274c-7.809 0.512-15.58 1.18-23.515 1.18s-15.717-0.662-23.515-1.18l-138.26 235.869s-64.193-71.566-128.608-143.399C120.897 838.845 25.54 819.726 25.54 819.726l150.289-256.463c-24.215-48.514-38.134-102.905-38.134-160.644 0-201.452 165.785-364.814 370.294-364.814 204.514 0 370.299 163.335 370.299 364.814 0 57.725-13.967 112.106-38.181 160.644l150.31 256.463z m-313.522 72.965s46.284-43.886 89.761-86.192c61.75-17.5 124.023-35.424 124.023-35.424l-87.321-149.04c-50.378 65.724-122.703 113.958-206.348 134.354l79.931 136.294zM125.218 771.086s62.31 17.908 124.011 35.424c43.508 42.329 89.809 86.192 89.809 86.192l79.859-136.294c-83.655-20.406-155.963-68.623-206.323-134.354l-87.338 149.04zM507.941 97.61c-166.239 0-301.061 135.092-301.061 301.712C206.88 565.907 341.671 701 507.941 701s301.061-135.067 301.061-301.678C809 232.713 674.211 97.61 507.941 97.61z m0 512.763c-116.48 0-210.946-94.459-210.946-210.946 0-116.48 94.459-210.946 210.946-210.946s210.946 94.459 210.946 210.946c0 116.505-94.486 210.946-210.946 210.946z m0-361.638c-83.204 0-150.676 67.453-150.676 150.676s67.453 150.701 150.676 150.701 150.676-67.453 150.676-150.701c0-83.204-67.483-150.676-150.676-150.676z" fill="#2c2c2c" p-id="13936"></path></svg>