<?xml version="1.0" standalone="no"?><!DOCTYPE svg PUBLIC "-//W3C//DTD SVG 1.1//EN" "http://www.w3.org/Graphics/SVG/1.1/DTD/svg11.dtd"><svg t="1545633186691" class="icon" style="" viewBox="0 0 1024 1024" version="1.1" xmlns="http://www.w3.org/2000/svg" p-id="19437" data-spm-anchor-id="a313x.7781069.0.i3" xmlns:xlink="http://www.w3.org/1999/xlink" width="200" height="200"><defs><style type="text/css"></style></defs><path d="M512 0C229.2 0 0 229.2 0 512s229.2 512 512 512 512-229.2 512-512S794.8 0 512 0z m209.1 563.2C686.9 610.1 640 669.9 597.3 704c-29.9 25.6-85.3 64-132.3 55.5-115.2-17.1-89.6-281.6-166.4-341.3-34.1-8.5-51.2 42.7-72.5 12.8-25.6-25.6 34.1-68.3 64-93.9 38.4-29.9 51.2-42.7 102.4-25.6 93.9 34.1 29.9 268.8 119.5 315.7 46.9-34.1 174.9-166.4 166.4-238.9-8.5-25.6-42.7-25.6-68.3-21.3 8.5-51.2 25.6-59.7 68.3-76.8 17.1-8.5 110.9-25.6 119.5 59.7 8.5 93.8-76.8 213.3-76.8 213.3z" fill="#f4ea2a" p-id="19438"></path></svg>