<?xml version="1.0" standalone="no"?><!DOCTYPE svg PUBLIC "-//W3C//DTD SVG 1.1//EN" "http://www.w3.org/Graphics/SVG/1.1/DTD/svg11.dtd"><svg t="1535711634494" class="icon" style="" viewBox="0 0 1024 1024" version="1.1" xmlns="http://www.w3.org/2000/svg" p-id="8937" xmlns:xlink="http://www.w3.org/1999/xlink" width="48" height="48"><defs><style type="text/css"></style></defs><path d="M204.8 321.828571h438.857143v58.514286H204.8z" p-id="8938" fill="#707070"></path><path d="M87.771429 58.514286h92.803657l87.888457 87.771428h311.647086l87.771428-87.771428H760.685714v438.857143h58.514286V29.257143a29.257143 29.257143 0 0 0-29.257143-29.257143h-146.285714l-87.771429 87.771429H292.688457L204.8 0H58.514286a29.257143 29.257143 0 0 0-29.257143 29.257143v906.971428a29.257143 29.257143 0 0 0 29.257143 29.257143h438.857143v-58.514285H87.771429V58.514286z" p-id="8939" fill="#707070"></path><path d="M321.828571 58.514286h204.8a29.257143 29.257143 0 0 0 0-58.514286h-204.8a29.257143 29.257143 0 0 0 0 58.514286zM204.8 672.914286h292.571429v58.514285H204.8zM204.8 497.371429h438.857143v58.514285H204.8zM760.685714 555.885714a234.057143 234.057143 0 1 0 0 468.114286 234.057143 234.057143 0 0 0 0-468.114286z m0 409.6a175.542857 175.542857 0 1 1 0-351.085714 175.542857 175.542857 0 0 1 0 351.085714z" p-id="8940" fill="#707070"></path><path d="M731.428571 848.457143h58.514286v58.514286h-58.514286zM731.428571 672.914286h58.514286v146.285714h-58.514286z" p-id="8941" fill="#707070"></path></svg>