<?xml version="1.0" standalone="no"?><!DOCTYPE svg PUBLIC "-//W3C//DTD SVG 1.1//EN" "http://www.w3.org/Graphics/SVG/1.1/DTD/svg11.dtd"><svg t="1536137825258" class="icon" style="" viewBox="0 0 1718 1024" version="1.1" xmlns="http://www.w3.org/2000/svg"  fill="#888888" p-id="23298" xmlns:xlink="http://www.w3.org/1999/xlink" width="53.6875" height="32"><defs><style type="text/css"></style></defs><path d="M246.016637 637.810541 190.128787 637.810541c0-34.120204-11.749878-63.447445-35.254381-87.991213-23.499757-24.534277-51.716549-36.801416-84.64563-36.801416L70.228776 455.573535c43.378691 0 89.528758 16.115746 120.426762 48.351983C221.558288 536.166501 246.016637 592.818378 246.016637 637.810541L246.016637 637.810541zM246.016637 637.810541"  fill="#888888" p-id="23299"></path><path d="M431.25755 753.325702c-48.888226-57.985365-73.332339-129.177479-73.332339-213.585834 0-84.403609 24.444113-156.7299 73.332339-216.978872l55.683793 0c-49.040082 62.664436-73.555377 134.843616-73.555377 216.528049 0 81.537322 24.377676 152.881293 73.118791 214.036657L431.25755 753.325702 431.25755 753.325702zM431.25755 753.325702"  fill="#888888" p-id="23300"></path><path d="M662.297364 348.809091c0 45.001654-24.46784 101.653532-55.365844 133.885023-30.90275 32.236237-77.057562 48.361474-120.436253 48.361474L486.495266 473.606466c32.933827 0 61.150619-12.224429 84.655121-36.69227 23.499757-24.458349 35.24489-53.823554 35.24489-88.095615l55.897341 0L662.292618 348.809091zM662.297364 348.809091"  fill="#888888" p-id="23301"></path><path d="M958.701807 746.30235 758.949129 746.30235l0-47.251025 199.766914 0 0 47.251025L958.701807 746.30235zM958.701807 746.30235"  fill="#888888" p-id="23302"></path><path d="M1231.364473 531.055588c-43.23158 0-98.36964-25.136957-129.338827-57.37794-30.978678-32.240983-46.463271-79.871649-46.463271-124.868558l55.897341 0c0 34.281551 11.783097 63.646756 35.358782 88.105106 23.570939 24.458349 51.754513 36.69227 84.541229 36.69227L1231.359727 531.055588 1231.364473 531.055588zM1231.364473 531.055588"  fill="#888888" p-id="23303"></path><path d="M1231.582766 753.325702c48.888226-61.008254 73.332339-132.347479 73.332339-214.036657 0-81.84578-24.591224-154.015469-73.76418-216.528049l55.892596 0c49.025845 59.793404 73.545886 132.12444 73.545886 216.978872 0 84.859178-24.520041 156.051292-73.545886 213.576343l-55.4655 0L1231.578021 753.325702zM1231.582766 753.325702"  fill="#888888" p-id="23304"></path><path d="M1647.645199 513.017912c-32.781971 0-60.97029 12.267139-84.536483 36.801416-23.58043 24.543769-35.358782 53.871009-35.358782 87.991213l-55.897341 0c0-44.992163 15.484593-92.627575 46.45378-124.868558 30.973932-32.226746 86.111992-57.368449 129.343572-57.368449L1647.649945 513.017912 1647.645199 513.017912zM1647.645199 513.017912"  fill="#888888" p-id="23305"></path></svg>