<svg t="1584460304086" class="icon" viewBox="0 0 1024 1024" version="1.1" xmlns="http://www.w3.org/2000/svg" p-id="51283" width="64" height="64"><path d="M640 880.96l248.896-248.896 40.704 40.768-248.896 248.896z" p-id="51284" fill="#52d037"></path><path d="M621.44 775.616l81.472 81.408-40.704 40.768-81.472-81.472z" p-id="51285" fill="#52d037"></path><path d="M505.6 742.4c57.6-115.2 230.4-57.6 230.4-57.6l57.6-57.6V230.4c0-70.4-57.6-128-128-128h-448c-70.4 0-128 57.6-128 128v563.2c0 70.4 57.6 128 128 128h262.4c0-57.6 0-128 25.6-179.2zM268.8 275.2h352v57.6H268.8v-57.6z m0 179.2h352V512H268.8v-57.6z m121.6 230.4H268.8v-57.6H384v57.6z" p-id="51286" fill="#52d037"></path></svg>