<svg t="1584444196469" class="icon" viewBox="0 0 1024 1024" version="1.1" xmlns="http://www.w3.org/2000/svg" p-id="6284" width="64" height="64"><path d="M842.2 883.5H176.9c-47.2 0-85.7-38.4-85.7-85.7V133.2c0-47.3 38.4-85.7 85.7-85.7h665.3c47.2 0 85.7 38.4 85.7 85.7v664.6c-0.1 47.3-38.5 85.7-85.7 85.7z m-665.4-768c-9.8 0-17.7 7.9-17.7 17.7v664.6c0 9.8 7.9 17.7 17.7 17.7h665.3c9.8 0 17.7-7.9 17.7-17.7V133.2c0-9.8-7.9-17.7-17.7-17.7H176.8z" p-id="6285" fill="#52d037"></path><path d="M453.9 389l-75.4-179.6c-6.4-15.7-9.7-20.7-12.2-23.4-4-4.7-11.2-10.1-23.3-10.1-9.9 0-18.1 3.9-23.7 11.2-2.1 2.6-5.3 7.6-11.5 22.6v0.1l-72.6 180.5c-3.8 9.1-5.5 15.3-5.5 20 0 4.3 1.3 10.7 7.5 16.9l0.3 0.3c4.9 4.5 11.3 7 17.9 6.9 9.9 0 15.7-4.7 18.9-8.6 2.7-3.3 5.3-8.5 8.5-17l17.1-44.5h87.9l17.9 43.7c4.6 11.3 6.7 14.9 8 16.8l0.2 0.3c3.2 4.2 9.1 9.3 19.5 9.3 6.8 0 13.3-2.6 18.2-7.2 0.2-0.2 0.4-0.3 0.5-0.5 6-6.4 7.2-12.8 7.2-17 0.2-5.1-1.6-11.6-5.4-20.7z m-84.1-70.7h-52.9l26-67.5 26.9 67.5z m391.2-2c-5.8-7.2-12.8-13.2-20.8-17.8 15.2-12.8 23.2-30.1 23.2-51.1 0-26.8-11.3-47.1-33.7-60.2-12.7-7.6-30.4-11.3-53.9-11.3h-69.1c-15.5 0-24.8 2.4-30.1 7.7-5.2 5.2-7.4 14.1-7.4 29.8V400c0 16.1 2.4 25.2 8.1 30.2 5.5 5 14.6 7.3 29.4 7.3h74.6c22.7 0 41.7-4.2 56.6-12.5 11.6-6.5 21.1-16.1 27.4-27.7l0.1-0.2c6.2-11.7 9.5-24.8 9.4-38.1 0-16.6-4.7-31-13.8-42.7z m-138.4 9.9H679c14.6 0 25.9 3.5 33.4 10.3l0.2 0.2c5.4 4.7 8.1 11.6 8.1 21 0 10.1-3.2 17.8-9.7 23.3l-0.1 0.1c-6.9 6-17.6 9.1-31.9 9.1h-56.4v-64z m79.7-55.5l-0.1 0.1c-5.3 5.5-15 8.2-28.7 8.2h-50.9v-56H664c18 0 27 2.1 31.4 3.8l0.2 0.1c7 2.6 15 7.7 15 23.7 0.2 7.6-2.9 14.9-8.3 20.1zM445.6 650.2c-4.5-4.3-10.5-6.6-16.7-6.6-14.5 0-21.2 12.7-23.9 20.3v0.1c-10.4 29.8-28.5 43.7-57.2 43.7-16.8 0-30.3-5-41.4-15.1-15.1-14-22.8-36.8-22.8-67.6 0-31.1 7.9-54.3 23.5-69 11.5-11 25.6-16.3 43.2-16.3 10.5 0 19.4 2.5 27.5 7.5l0.2 0.1c9 5.4 16.2 13.3 21 22.6 3.2 6.1 12.8 24.7 28.7 24.7 9.6 0 15-4.5 17.9-8.3l0.2-0.3c3.3-4.5 5.1-10 5.1-15.7 0-7.5-3.3-16.6-10-27.9-8-13.4-19.2-24.7-32.5-32.9-16.8-10.7-36.8-16.2-59.3-16.2-34.5 0-63.2 12.3-85.2 36.6-22.2 23.8-33.4 55.4-33.4 93.7 0 41.2 12.2 74.7 36.1 99.6 19.7 20.4 48 30.7 84.1 30.7 32.3 0 58.8-11.5 78.7-34.2 15.6-17.7 23.5-35.4 23.5-52.5 0.1-6.4-2.5-12.6-7.3-17z m314.7-120.7c-12.4-15.3-29.3-26.2-48.3-31.3-11.8-3.4-26.7-5-45.8-5h-58.3c-15.9 0-25.4 2.6-30.8 8.3-4.9 5.3-7.1 14.3-7.1 29.2v182.6c0 17.3 1.9 27 6.3 32.6 5.2 6.4 14.9 9.2 31.6 9.2h58.7c32.3 0 57.9-6.6 76-19.7 31.1-22.1 46.8-59.7 46.8-111.6-0.1-39.7-9.8-71.5-29.1-94.3z m-25.1 96c0 27.9-5.8 48.8-17.1 62.3l-0.1 0.1c-6.4 7.8-13.5 13-21.6 15.6l-0.4 0.2c-7.5 2.8-18.8 4.2-33.6 4.2h-38.8V540.4h37.2c16.3 0 28.6 1.6 36.7 4.8l0.3 0.1c7.7 2.8 14.3 7.9 20 15.5l0.1 0.1c11.4 14.8 17.3 36.6 17.3 64.6z m0 0" p-id="6286" fill="#52d037"></path></svg>