<svg t="1584460381827" class="icon" viewBox="0 0 1024 1024" version="1.1" xmlns="http://www.w3.org/2000/svg" p-id="4195" width="64" height="64"><path d="M880.510966 305.594459l-244.327819-237.334359a87.713736 87.713736 0 0 0-60.330896-24.083109h-400.892651c-31.766064 0-57.474413 24.821855-57.474413 55.405926v824.932666c0 30.584071 25.708349 55.405925 57.474413 55.405925h673.046556c31.766064 0 57.474413-24.821855 57.474413-55.405925v-560.707965a81.508272 81.508272 0 0 0-24.969603-58.213159z m-541.352828 5.023471h231.276645c25.018853 0 45.358984 19.601385 45.358984 43.782993-0.04925 24.132359-20.340131 43.782993-45.358984 43.782994h-231.276645c-25.068103 0-45.358984-19.601385-45.358984-43.782994 0-24.230858 20.290881-43.782993 45.358984-43.782993z m-44.226241 244.574067c-0.04925-23.738361 19.601385-43.191997 44.226241-43.782994h164.346287c25.068103 0 45.358984 19.601385 45.358984 43.782994s-20.340131 43.782993-45.358984 43.782993h-164.346287c-24.624856-0.590997-44.275491-19.995383-44.226241-43.782993z m465.409773 118.347056l-193.649865 186.705657a46.934975 46.934975 0 0 1-64.073875 0l-103.473644-99.730666a42.994998 42.994998 0 0 1 0-61.759138 46.294729 46.294729 0 0 1 63.827626-0.295499l0.295499 0.295499 71.461331 68.703347 161.489804-155.678338a46.245479 46.245479 0 0 1 63.778376-0.246248l0.295498 0.246248a42.945748 42.945748 0 0 1 0.04925 61.759138z" p-id="4196" fill="#52d037"></path></svg>