<?xml version="1.0" encoding="utf-8"?>
<!-- Generator: Adobe Illustrator 23.0.0, SVG Export Plug-In . SVG Version: 6.00 Build 0)  -->
<svg version="1.1" id="图层_1" xmlns="http://www.w3.org/2000/svg" xmlns:xlink="http://www.w3.org/1999/xlink" x="0px" y="0px"
	 viewBox="0 0 1024 1024" style="enable-background:new 0 0 1024 1024;" xml:space="preserve">
<style type="text/css">
	.st0{fill:none;}
	.st1{fill:none;stroke:#E5E5E5;stroke-width:12;stroke-linecap:round;stroke-miterlimit:10;}
	.st2{fill:none;stroke:#F95863;stroke-width:60;stroke-linecap:round;stroke-linejoin:round;stroke-miterlimit:10;}
	.st3{fill:#9DE8F7;}
	.st4{fill:#FAD97F;}
	.st5{fill:#F2385A;}
</style>
<circle class="st0" cx="510.7" cy="511.1" r="448.5"/>
<ellipse transform="matrix(0.9732 -0.2298 0.2298 0.9732 -125.4682 59.7379)" class="st0" cx="193.8" cy="568.7" rx="4.5" ry="4.5"/>
<ellipse transform="matrix(0.7071 -0.7071 0.7071 0.7071 -19.5199 792.9902)" class="st0" cx="947.5" cy="420.1" rx="4.6" ry="4.6"/>
<ellipse transform="matrix(0.7071 -0.7071 0.7071 0.7071 -19.5199 792.9902)" class="st0" cx="947.5" cy="420.1" rx="4.6" ry="4.6"/>
<ellipse transform="matrix(0.7071 -0.7071 0.7071 0.7071 -19.5199 792.9902)" class="st0" cx="947.5" cy="420.1" rx="4.6" ry="4.6"/>
<path class="st0" d="M545.1,502.9c1.6-3.5,2.7-5.8,2.7-5.9l1.6-3.4l-0.5,0L545.1,502.9z"/>
<ellipse transform="matrix(0.7071 -0.7071 0.7071 0.7071 -19.5199 792.9902)" class="st0" cx="947.5" cy="420.1" rx="4.6" ry="4.6"/>
<g>
	<circle class="st0" cx="222.4" cy="660.5" r="6.5"/>
	<circle class="st0" cx="105.4" cy="749.2" r="16"/>
	<circle class="st0" cx="916.9" cy="491.7" r="12"/>
	<circle class="st3" cx="180.3" cy="465.1" r="16"/>
	<path class="st3" d="M222.4,648c-6.9,0-12.5,5.6-12.5,12.5s5.6,12.5,12.5,12.5s12.5-5.6,12.5-12.5S229.3,648,222.4,648z M222.4,667
		c-3.6,0-6.5-2.9-6.5-6.5c0-3.6,2.9-6.5,6.5-6.5s6.5,2.9,6.5,6.5C228.9,664,226,667,222.4,667z"/>
	<path class="st4" d="M105.4,725.2c-13.3,0-24,10.7-24,24s10.7,24,24,24c13.3,0,24-10.7,24-24S118.7,725.2,105.4,725.2z
		 M105.4,765.2c-8.8,0-16-7.2-16-16c0-8.8,7.2-16,16-16s16,7.2,16,16C121.4,758,114.2,765.2,105.4,765.2z"/>
	<path class="st5" d="M89.4,416c2.2,0,4-1.8,4-4v-8c0-2.2-1.8-4-4-4s-4,1.8-4,4v8C85.4,414.2,87.1,416,89.4,416z"/>
	<path class="st5" d="M89.4,448.1c2.2,0,4-1.8,4-4v-8c0-2.2-1.8-4-4-4s-4,1.8-4,4v8C85.4,446.3,87.1,448.1,89.4,448.1z"/>
	<path class="st5" d="M100.4,417.9l5.7-5.7c1.6-1.6,1.6-4.1,0-5.7c-1.6-1.6-4.1-1.6-5.7,0l-5.7,5.7c-1.6,1.6-1.6,4.1,0,5.7
		C96.4,419.4,98.9,419.4,100.4,417.9z"/>
	<path class="st5" d="M83.9,429.6c-1.6-1.6-4.1-1.6-5.7,0l-5.7,5.7c-1.6,1.6-1.6,4.1,0,5.7c1.6,1.6,4.1,1.6,5.7,0l5.7-5.7
		C85.5,433.7,85.5,431.2,83.9,429.6z"/>
	<path class="st5" d="M78.3,417.7c1.6,1.6,4.1,1.6,5.7,0c1.6-1.6,1.6-4.1,0-5.7l-5.7-5.7c-1.6-1.6-4.1-1.6-5.7,0
		c-1.6,1.6-1.6,4.1,0,5.7L78.3,417.7z"/>
	<path class="st5" d="M100.4,441.2c1.6,1.6,4.1,1.6,5.7,0c1.6-1.6,1.6-4.1,0-5.7l-5.7-5.7c-1.6-1.6-4.1-1.6-5.7,0
		c-1.6,1.6-1.6,4.1,0,5.7L100.4,441.2z"/>
	<path class="st5" d="M96.9,424c0,2.2,1.8,4,4,4h8c2.2,0,4-1.8,4-4c0-2.2-1.8-4-4-4h-8C98.7,420,96.9,421.8,96.9,424z"/>
	<path class="st5" d="M81.8,423.9c0-2.2-1.8-4-4-4h-8c-2.2,0-4,1.8-4,4c0,2.2,1.8,4,4,4h8C80,427.9,81.8,426.1,81.8,423.9z"/>
	<path class="st5" d="M141.3,629.1h-11v-11c0-2.8-2.2-5-5-5c-2.8,0-5,2.2-5,5v11h-11c-2.8,0-5,2.2-5,5s2.2,5,5,5h11v11
		c0,2.8,2.2,5,5,5c2.8,0,5-2.2,5-5v-11h11c2.8,0,5-2.2,5-5S144,629.1,141.3,629.1z"/>
	<path class="st3" d="M282.5,223.9h11v11c0,2.8,2.2,5,5,5s5-2.2,5-5v-11h11c2.8,0,5-2.2,5-5v0c0-2.8-2.2-5-5-5h-11v-11
		c0-2.8-2.2-5-5-5s-5,2.2-5,5v11h-11c-2.8,0-5,2.2-5,5v0C277.5,221.7,279.7,223.9,282.5,223.9z"/>
	<circle class="st3" cx="871.9" cy="275.9" r="16"/>
	<path class="st5" d="M938.9,491.7c0-12.2-9.8-22-22-22c-12.2,0-22,9.8-22,22c0,12.2,9.8,22,22,22
		C929,513.7,938.9,503.9,938.9,491.7z M904.9,491.7c0-6.6,5.4-12,12-12s12,5.4,12,12c0,6.6-5.4,12-12,12S904.9,498.3,904.9,491.7z"
		/>
	<path class="st3" d="M936.8,613.7c-2.2,0-4,1.8-4,4v8c0,2.2,1.8,4,4,4c2.2,0,4-1.8,4-4v-8C940.8,615.5,939,613.7,936.8,613.7z"/>
	<path class="st3" d="M936.8,645.8c-2.2,0-4,1.8-4,4v8c0,2.2,1.8,4,4,4c2.2,0,4-1.8,4-4v-8C940.8,647.6,939,645.8,936.8,645.8z"/>
	<path class="st3" d="M947.9,631.5l5.7-5.7c1.6-1.6,1.6-4.1,0-5.7c-1.6-1.6-4.1-1.6-5.7,0l-5.7,5.7c-1.6,1.6-1.6,4.1,0,5.7
		C943.8,633.1,946.3,633.1,947.9,631.5z"/>
	<path class="st3" d="M925.7,643.3L920,649c-1.6,1.6-1.6,4.1,0,5.7c1.6,1.6,4.1,1.6,5.7,0l5.7-5.7c1.6-1.6,1.6-4.1,0-5.7
		C929.8,641.7,927.2,641.7,925.7,643.3z"/>
	<path class="st3" d="M925.7,620c-1.6-1.6-4.1-1.6-5.7,0c-1.6,1.6-1.6,4.1,0,5.7l5.7,5.7c1.6,1.6,4.1,1.6,5.7,0
		c1.6-1.6,1.6-4.1,0-5.7L925.7,620z"/>
	<path class="st3" d="M947.9,643.5c-1.6-1.6-4.1-1.6-5.7,0c-1.6,1.6-1.6,4.1,0,5.7l5.7,5.7c1.6,1.6,4.1,1.6,5.7,0
		c1.6-1.6,1.6-4.1,0-5.7L947.9,643.5z"/>
	<path class="st3" d="M956.3,633.7h-8c-2.2,0-4,1.8-4,4s1.8,4,4,4h8c2.2,0,4-1.8,4-4S958.5,633.7,956.3,633.7z"/>
	<path class="st3" d="M929.2,637.5c0-2.2-1.8-4-4-4h-8c-2.2,0-4,1.8-4,4s1.8,4,4,4h8C927.4,641.5,929.2,639.7,929.2,637.5z"/>
	<path class="st3" d="M862.7,747.2h-11v-11c0-2.8-2.2-5-5-5s-5,2.2-5,5v11h-11c-2.8,0-5,2.2-5,5s2.2,5,5,5h11v11c0,2.8,2.2,5,5,5
		s5-2.2,5-5v-11h11c2.8,0,5-2.2,5-5S865.4,747.2,862.7,747.2z"/>
	<path class="st4" d="M738.2,245.5h10v10c0,2.5,2,4.5,4.5,4.5c2.5,0,4.5-2,4.5-4.5v-10h10c2.5,0,4.5-2,4.5-4.5v0
		c0-2.5-2-4.5-4.5-4.5h-10v-10c0-2.5-2-4.5-4.5-4.5c-2.5,0-4.5,2-4.5,4.5v10h-10c-2.5,0-4.5,2-4.5,4.5v0
		C733.7,243.5,735.7,245.5,738.2,245.5z"/>
	<path class="st4" d="M796.9,533.9c0-150.6-122.6-273.2-273.2-273.2c-29.7,0-58.9,4.8-86.6,14.1c-100.6,43.8-170.9,144-170.9,260.7
		c0,104.7,56.6,196.2,140.9,245.5c35.4,16.8,74.9,26.1,116.5,26.1C674.3,807.1,796.9,684.6,796.9,533.9z M504.1,688.3
		c-0.5,0.1-1,0.1-1.4,0.1c-2.3,0-4.5-0.8-6.3-2.3L361.7,575.6c-4.3-3.5-4.9-9.8-1.4-14.1c3.5-4.3,9.8-4.9,14.1-1.4l126.1,103.6
		l189.5-281c3.1-4.6,9.3-5.8,13.9-2.7c4.6,3.1,5.8,9.3,2.7,13.9L511,684C509.4,686.4,506.9,687.9,504.1,688.3z"/>
	<path class="st4" d="M834.7,535.5c0-121.8-76.6-225.6-184.2-266.1c29.5,14.2,56.7,33.4,80.5,57.2c55.4,55.4,85.9,129,85.9,207.3
		c0,78.3-30.5,151.9-85.9,207.3c-32.2,32.2-70.5,55.9-112.3,70.2C742.7,780.9,834.7,668.9,834.7,535.5z"/>
	<path d="M816.9,533.9c0-78.3-30.5-151.9-85.9-207.3c-23.8-23.8-51-43-80.5-57.2c-39.1-18.8-82.2-28.7-126.8-28.7
		c-71.8,0-140.9,26.2-194.6,73.9c-4.1,3.7-4.5,10-0.8,14.1c3.7,4.1,10,4.5,14.1,0.8c27.8-24.7,60.1-43.2,94.7-54.8
		c27.7-9.2,56.9-14.1,86.6-14.1c150.6,0,273.2,122.6,273.2,273.2S674.3,807.1,523.7,807.1c-41.7,0-81.2-9.4-116.5-26.1
		c-92.5-43.8-156.7-138.1-156.7-247.1c0-44.6,11-88.9,31.8-128.1c2.6-4.9,0.7-10.9-4.1-13.5c-4.9-2.6-10.9-0.7-13.5,4.1
		c-22.4,42-34.2,89.6-34.2,137.5c0,78.3,30.5,151.9,85.9,207.3c55.4,55.4,129,85.9,207.3,85.9c32.8,0,64.8-5.4,95-15.7
		c41.8-14.3,80.2-38,112.3-70.2C786.4,685.9,816.9,612.2,816.9,533.9z"/>
	<path d="M310.6,332.6c-8.9,9.4-17.2,19.4-24.7,29.8c-3.2,4.5-2.2,10.7,2.3,14c1.8,1.3,3.8,1.9,5.8,1.9c3.1,0,6.2-1.4,8.1-4.1
		c7-9.7,14.8-19.1,23-27.8c3.8-4,3.6-10.3-0.4-14.1S314.4,328.6,310.6,332.6z"/>
	<path class="st5" d="M703.9,380.1c-4.6-3.1-10.8-1.9-13.9,2.7l-189.5,281L374.4,560.1c-4.3-3.5-10.6-2.9-14.1,1.4
		c-3.5,4.3-2.9,10.6,1.4,14.1l134.6,110.6c1.8,1.5,4,2.3,6.3,2.3c0.5,0,1,0,1.4-0.1c2.8-0.4,5.3-2,6.8-4.3L706.6,394
		C709.7,389.4,708.5,383.2,703.9,380.1z"/>
</g>
</svg>
