<?xml version="1.0" standalone="no"?><!DOCTYPE svg PUBLIC "-//W3C//DTD SVG 1.1//EN" "http://www.w3.org/Graphics/SVG/1.1/DTD/svg11.dtd"><svg t="1531967823921" class="icon" style="" viewBox="0 0 1024 1024" version="1.1" xmlns="http://www.w3.org/2000/svg" p-id="6503" xmlns:xlink="http://www.w3.org/1999/xlink" width="16" height="16"><defs><style type="text/css"></style></defs><path d="M511.2832 0.1024A511.5904 511.5904 0 0 0 0 512a511.5904 511.5904 0 0 0 511.2832 511.8976A511.488 511.488 0 0 0 1022.464 512 511.488 511.488 0 0 0 511.2832 0.1024z m240.128 563.6096c-39.6288 57.7536-94.0032 127.0784-141.5168 168.0384-34.5088 29.696-98.0992 75.6736-148.2752 67.1744-129.2288-21.7088-101.7856-338.5344-188.7232-410.0096-39.8336-11.5712-59.0848 49.5616-80.896 13.5168-34.4064-28.672 33.1776-78.7456 67.3792-107.52 42.3936-35.6352 92.2624-86.4256 148.2752-64.3072 108.9536 43.008 30.8224 303.4112 134.7584 360.0384 53.76-43.2128 113.9712-114.4832 101.1712-201.728-10.1376-29.0816-59.392-19.8656-87.6544-13.4144-1.4336-133.0176 261.4272-234.9056 283.136-53.76 11.776 110.8992-87.6544 241.9712-87.6544 241.9712z" fill="#F5CC23" p-id="6504"></path></svg>