<svg id="bangzhu.svg" xmlns="http://www.w3.org/2000/svg" width="80" height="80" viewBox="0 0 48 64">
  <defs>
    <style>
      .cls-1, .cls-4 {
        fill: #fad97f;
      }

      .cls-2 {
        fill: none;
      }

      .cls-2, .cls-3, .cls-4 {
        stroke: #000;
        stroke-width: 2px;
      }

      .cls-2, .cls-3 {
        fill-rule: evenodd;
      }

      .cls-3 {
        fill: #f2385a;
      }
    </style>
  </defs>
  <ellipse id="椭圆_17" data-name="椭圆 17" class="cls-1" cx="26.5" cy="23.5" rx="21.5" ry="20.5"/>
  <path id="椭圆_19" data-name="椭圆 19" class="cls-2" d="M354.072,1632.62a22.512,22.512,0,0,1,3.5-6.72m1.476-1.75A22.5,22.5,0,1,1,353,1639.5a22.7,22.7,0,0,1,.372-4.1" transform="translate(-352 -1616)"/>
  <path id="圆角矩形_28" data-name="圆角矩形 28" class="cls-3" d="M370,1660v-10a5,5,0,0,1,10,0v10.04" transform="translate(-352 -1616)"/>
  <path id="圆角矩形_29" data-name="圆角矩形 29" class="cls-4" d="M17,43H29a3,3,0,0,1,3,3v8a9,9,0,0,1-9,9h0a9,9,0,0,1-9-9V46A3,3,0,0,1,17,43Z"/>
</svg>
