<svg id="banjixiangce.svg" xmlns="http://www.w3.org/2000/svg" width="80" height="80" viewBox="0 0 61.813 58.34">
  <defs>
    <style>
      .cls-1 {
        fill: #f2385a;
      }

      .cls-2 {
        fill: none;
        stroke: #000;
        stroke-linecap: round;
        stroke-width: 2px;
      }

      .cls-2, .cls-4 {
        fill-rule: evenodd;
      }

      .cls-3 {
        fill: #fad97f;
      }

      .cls-4 {
        fill: #9de8f7;
      }
    </style>
  </defs>
  <g id="班级相册-1">
    <rect id="圆角矩形_17_拷贝_3" data-name="圆角矩形 17 拷贝 3" class="cls-1" x="4" y="1.25" width="13" height="56" rx="4" ry="4"/>
    <path id="圆角矩形_17_拷贝" data-name="圆角矩形 17 拷贝" class="cls-2" d="M363,1082.97v4.04m0,4.08V1103a4,4,0,0,1-4,4h-6a4,4,0,0,1-4-4v-48a4,4,0,0,1,4-4h6a4,4,0,0,1,4,4v24.09m0,12.77" transform="translate(-348 -1049.75)"/>
  </g>
  <g id="班级相册-2">
    <rect id="圆角矩形_17_拷贝_3-2" data-name="圆角矩形 17 拷贝 3" class="cls-3" x="23" y="1.25" width="13" height="56" rx="4" ry="4"/>
    <path id="圆角矩形_17_拷贝-2" data-name="圆角矩形 17 拷贝" class="cls-2" d="M382,1082.97v4.13m0,15.9a4,4,0,0,1-4,4h-6a4,4,0,0,1-4-4v-48a4,4,0,0,1,4-4h6a4,4,0,0,1,4,4v24.18m0,11.66v12.02" transform="translate(-348 -1049.75)"/>
  </g>
  <g id="班级相册-3">
    <path id="圆角矩形_17_拷贝_3-3" data-name="圆角矩形 17 拷贝 3" class="cls-4" d="M395.075,1051.44l1.23-.2c2.72-.44,5.2.97,5.538,3.16l7.37,47.43c0.339,2.18-1.59,4.31-4.31,4.75l-1.23.2c-2.719.43-5.2-.98-5.538-3.16l-7.37-47.44C390.426,1054,392.356,1051.88,395.075,1051.44Z" transform="translate(-348 -1049.75)"/>
    <path id="圆角矩形_17_拷贝-3" data-name="圆角矩形 17 拷贝" class="cls-2" d="M405.539,1081.72c0.17,1.04.5,3.06,0.669,4.07m0.633,3.95c1.1,6.75,1.909,11.75,1.909,11.75a4,4,0,0,1-3.308,4.59l-5.922.96a3.99,3.99,0,0,1-4.589-3.31l-7.692-47.38a3.989,3.989,0,0,1,3.307-4.58l5.922-.97a4.006,4.006,0,0,1,4.59,3.31l3.9,23.75m1.469,8.92,1.412,8.64" transform="translate(-348 -1049.75)"/>
  </g>
</svg>
