<svg id="banjishezhi.svg" xmlns="http://www.w3.org/2000/svg" width="80" height="80" viewBox="0 0 59 58">
  <defs>
    <style>
      .cls-1 {
        fill: #fad97f;
      }

      .cls-1, .cls-2 {
        fill-rule: evenodd;
      }

      .cls-2 {
        fill-opacity: 0;
        stroke-linecap: round;
        stroke-linejoin: round;
      }

      .cls-2, .cls-4 {
        stroke: #000;
        stroke-width: 2px;
      }

      .cls-3 {
        fill: #9de8f7;
      }

      .cls-4 {
        fill: none;
      }
    </style>
  </defs>
  <path id="椭圆_20" data-name="椭圆 20" class="cls-1" d="M147.143,1653.75h-2.018a22.3,22.3,0,0,1-1.423,3.41l1.435,1.43a3.862,3.862,0,0,1,0,5.46l-4.091,4.09a3.868,3.868,0,0,1-5.454,0l-1.436-1.44a21.419,21.419,0,0,1-3.406,1.42v2.02a3.86,3.86,0,0,1-3.857,3.86h-5.786a3.86,3.86,0,0,1-3.857-3.86v-2.02a21.419,21.419,0,0,1-3.406-1.42l-1.436,1.44a3.868,3.868,0,0,1-5.454,0l-4.091-4.09a3.862,3.862,0,0,1,0-5.46l1.435-1.43a22.3,22.3,0,0,1-1.423-3.41h-2.018A3.86,3.86,0,0,1,97,1649.89v-5.78a3.86,3.86,0,0,1,3.857-3.86h2.018a22.3,22.3,0,0,1,1.423-3.41l-1.435-1.43a3.862,3.862,0,0,1,0-5.46l4.091-4.09a3.868,3.868,0,0,1,5.454,0l1.436,1.44a21.419,21.419,0,0,1,3.406-1.42v-2.02a3.86,3.86,0,0,1,3.857-3.86h5.786a3.86,3.86,0,0,1,3.857,3.86v2.02a21.419,21.419,0,0,1,3.406,1.42l1.436-1.44a3.868,3.868,0,0,1,5.454,0l4.091,4.09a3.862,3.862,0,0,1,0,5.46l-1.435,1.43a22.3,22.3,0,0,1,1.423,3.41h2.018a3.86,3.86,0,0,1,3.857,3.86v5.78A3.86,3.86,0,0,1,147.143,1653.75Z" transform="translate(-92 -1618)"/>
  <path id="椭圆_10" data-name="椭圆 10" class="cls-2" d="M142.374,1628.78c0.509,0.5.856,0.85,0.856,0.85a3.932,3.932,0,0,1,0,5.56l-1.556,1.56a22.789,22.789,0,0,1,1.192,2.88h2.2a3.93,3.93,0,0,1,3.93,3.93v6.88a3.93,3.93,0,0,1-3.93,3.93h-2.189a23.26,23.26,0,0,1-1.217,2.87l1.566,1.57a3.932,3.932,0,0,1,0,5.56l-4.863,4.86a3.92,3.92,0,0,1-5.557,0l-1.575-1.57a25.517,25.517,0,0,1-2.867,1.21v2.2a3.93,3.93,0,0,1-3.929,3.93h-6.878a3.93,3.93,0,0,1-3.929-3.93v-2.2a23.876,23.876,0,0,1-2.873-1.21l-1.569,1.57a3.921,3.921,0,0,1-5.558,0s-1.444-1.44-2.759-2.76c-1.1-1.1-2.1-2.1-2.1-2.1a3.933,3.933,0,0,1,0-5.56l1.556-1.56a22.775,22.775,0,0,1-1.192-2.88h-2.2a3.93,3.93,0,0,1-3.93-3.93v-6.88a3.93,3.93,0,0,1,3.93-3.93h2.189a22.582,22.582,0,0,1,1.217-2.87l-1.566-1.57a3.933,3.933,0,0,1,0-5.56l4.862-4.86a3.921,3.921,0,0,1,5.558,0l1.575,1.57a25.517,25.517,0,0,1,2.867-1.21v-2.2a3.93,3.93,0,0,1,3.929-3.93h6.878a3.93,3.93,0,0,1,3.929,3.93v2.2a23.876,23.876,0,0,1,2.873,1.21l1.569-1.57a3.92,3.92,0,0,1,5.557,0s0.264,0.26.669,0.67" transform="translate(-92 -1618)"/>
  <circle id="椭圆_11_拷贝" data-name="椭圆 11 拷贝" class="cls-3" cx="33" cy="28" r="8"/>
  <circle id="椭圆_11" data-name="椭圆 11" class="cls-4" cx="30" cy="29" r="8"/>
</svg>
