<svg id="buzhizuoye.svg" xmlns="http://www.w3.org/2000/svg" width="80" height="80" viewBox="0 0 53 58">
  <defs>
    <style>
      .cls-1 {
        fill: #fad97f;
      }

      .cls-2 {
        fill: none;
        stroke: #000;
        stroke-linecap: round;
        stroke-linejoin: round;
        stroke-width: 2px;
        fill-rule: evenodd;
      }
    </style>
  </defs>
  <rect id="圆角矩形_15_拷贝" data-name="圆角矩形 15 拷贝" class="cls-1" x="5" y="1" width="48" height="56" rx="6" ry="6"/>
  <rect id="圆角矩形_16" data-name="圆角矩形 16" x="11" y="15" width="32" height="2" rx="1" ry="1"/>
  <rect id="圆角矩形_16_拷贝" data-name="圆角矩形 16 拷贝" x="11" y="24" width="32" height="2" rx="1" ry="1"/>
  <rect id="圆角矩形_16_拷贝_2" data-name="圆角矩形 16 拷贝 2" x="11" y="33" width="17" height="2" rx="1" ry="1"/>
  <rect id="圆角矩形_16_拷贝_3" data-name="圆角矩形 16 拷贝 3" x="11" y="42" width="12" height="2" rx="1" ry="1"/>
  <path id="圆角矩形_35" data-name="圆角矩形 35" class="cls-2" d="M150,1093.12V1101a6,6,0,0,1-6,6H106a6,6,0,0,1-6-6v-44a6,6,0,0,1,6-6h38a6,6,0,0,1,6,6v23.06m0,3.85v5.03" transform="translate(-99 -1050)"/>
</svg>
