<?xml version="1.0" standalone="no"?><!DOCTYPE svg PUBLIC "-//W3C//DTD SVG 1.1//EN" "http://www.w3.org/Graphics/SVG/1.1/DTD/svg11.dtd"><svg t="1576831150268" class="icon" viewBox="0 0 1024 1024" version="1.1" xmlns="http://www.w3.org/2000/svg" p-id="15949" width="64" height="64" xmlns:xlink="http://www.w3.org/1999/xlink"><defs><style type="text/css"></style></defs><path d="M829.793103 1024 194.206897 1024c-78.000552 0-141.241379-63.240828-141.241379-141.241379L52.965517 247.172414c0-78.000552 63.240828-141.241379 141.241379-141.241379l70.62069 0L264.827586 70.62069c0-38.982621 31.638069-70.62069 70.62069-70.62069l353.103448 0c38.982621 0 70.62069 31.638069 70.62069 70.62069l0 35.310345 70.62069 0c78.000552 0 141.241379 63.240828 141.241379 141.241379l0 635.586207C971.034483 960.759172 907.793655 1024 829.793103 1024zM617.931034 70.62069l-211.862069 0C367.086345 70.62069 335.448276 102.258759 335.448276 141.241379s31.638069 70.62069 70.62069 70.62069l211.862069 0c38.982621 0 70.62069-31.638069 70.62069-70.62069S656.913655 70.62069 617.931034 70.62069zM900.413793 247.172414c0-38.982621-31.638069-70.62069-70.62069-70.62069l-70.62069 0 0 35.310345c0 38.982621-31.638069 70.62069-70.62069 70.62069L335.448276 282.482759C296.465655 282.482759 264.827586 250.84469 264.827586 211.862069L264.827586 176.551724 194.206897 176.551724C155.224276 176.551724 123.586207 208.189793 123.586207 247.172414l0 635.586207c0 38.982621 31.638069 70.62069 70.62069 70.62069l635.586207 0c38.982621 0 70.62069-31.638069 70.62069-70.62069L900.413793 247.172414zM723.862069 812.137931 300.137931 812.137931c-19.526621 0-35.310345-15.819034-35.310345-35.310345 0-19.526621 15.783724-35.310345 35.310345-35.310345l423.724138 0c19.49131 0 35.310345 15.783724 35.310345 35.310345C759.172414 796.318897 743.353379 812.137931 723.862069 812.137931zM723.862069 635.586207 300.137931 635.586207c-19.526621 0-35.310345-15.819034-35.310345-35.310345 0-19.526621 15.783724-35.310345 35.310345-35.310345l423.724138 0c19.49131 0 35.310345 15.783724 35.310345 35.310345C759.172414 619.767172 743.353379 635.586207 723.862069 635.586207zM723.862069 459.034483 300.137931 459.034483c-19.526621 0-35.310345-15.819034-35.310345-35.310345 0-19.526621 15.783724-35.310345 35.310345-35.310345l423.724138 0c19.49131 0 35.310345 15.783724 35.310345 35.310345C759.172414 443.215448 743.353379 459.034483 723.862069 459.034483z" p-id="15950" fill="#666666"></path></svg>