<?xml version="1.0" standalone="no"?><!DOCTYPE svg PUBLIC "-//W3C//DTD SVG 1.1//EN" "http://www.w3.org/Graphics/SVG/1.1/DTD/svg11.dtd"><svg t="1565230725212" class="icon" viewBox="0 0 1024 1024" version="1.1" xmlns="http://www.w3.org/2000/svg" p-id="8436" width="32" height="32" xmlns:xlink="http://www.w3.org/1999/xlink"><defs><style type="text/css"></style></defs><path d="M772.189244 519.046253c-137.845714 0.238878-249.42325 112.128791-249.279589 249.976176 0.147002 137.840703 111.958403 249.496751 249.804118 249.443296S1022.290706 906.676039 1022.329127 768.830325c-0.125285-138.024455-112.113757-249.819152-250.139883-249.70556v-0.078512z m151.912763 294.985385H829.823884v86.637383h-92.290261v-86.637383h-96.521567v-92.109849h96.521567v-104.011966h92.211749v104.011966h94.281464v92.109849h0.075171z m-450.063693-45.201313a295.139069 295.139069 0 0 1 45.381724-157.061159 55.848905 55.848905 0 0 1 6.342784-31.343074 295.595108 295.595108 0 0 0 52.696723-106.861792 145.446364 145.446364 0 0 0 51.824737-96.291042c3.058635-57.637981-10.751161-60.342476-10.751161-60.342475 20.588573-62.883264 27.213666-298.860881-124.475253-270.680012C469.756893-3.25702 311.269151-42.062095 237.40086 89.801658a278.918781 278.918781 0 0 0-21.784631 228.709391c-1.020659 5.454092-10.191552-5.347182-13.484054 28.540022a174.527618 174.527618 0 0 0 27.54442 101.135412 68.430903 68.430903 0 0 0 25.915709 19.237161 263.687414 263.687414 0 0 0 55.038726 112.954004c4.662289 26.906299-8.582887 53.74745-32.769658 66.428007C134.686851 674.350075 3.105408 753.720902 3.105408 839.56481v66.503177c0 93.185634 217.298395 113.161143 412.914057 113.161144a1167.519908 1167.519908 0 0 0 175.815553-13.886638 296.809541 296.809541 0 0 1-117.845148-236.510498h0.048444z m0 0" p-id="8437" fill="#52d037"></path></svg>