<svg xmlns="http://www.w3.org/2000/svg" 
    width="80"
    height="80"
    viewBox="0 -1 78.11 85.5">
    <defs>
        <style>
            .cls-1{
                fill:#fbd980;
            }
            .cls-2 {
                stroke: #000;
                stroke-width: 1px;
                fill-rule: evenodd;
            }
        </style>
    </defs>
    <title>资源 1</title>
    <g id="图层_2" 
        data-name="图层 2">
        <g id="图层_1-2" 
            data-name="图层 1">
            <ellipse class="cls-1" 
                cx="35.17" 
                cy="21.81" 
                rx="18.94" 
                ry="19.51" />
            <path class="cls-1" 
                d="M63.29,67.63c0,12.83-12.78,16.16-28.56,16.16S6.16,80.46,6.16,67.63,22.49,44.4,34.73,44.4C49.69,44.4,63.29,54.8,63.29,67.63Z" />
            <path class="cls-2" d="M33.42,44.09c16.71.09,30.31,14,30.82,31.23a1.16,1.16,0,0,0,1.13,1.17h0a1.17,1.17,0,0,0,1.16-1.22C66,56.72,51.42,41.8,33.43,41.7S.71,56.37,0,74.92a1.18,1.18,0,0,0,1.15,1.23h0A1.18,1.18,0,0,0,2.3,75C3,57.76,16.71,44,33.42,44.09Z" />
            <path class="cls-2" d="M55.7,42.8c7.62-2.93,11.08-9.46,11.12-18.4,0-6.41-2.77-13.47-7.08-17.33A1.09,1.09,0,0,0,59,6.79h0a1.14,1.14,0,0,0-.75,2,23.05,23.05,0,0,1,6.45,15.63c0,8.31-3.35,14.3-10.6,16.66a1.88,1.88,0,0,0-1.27,1.81h0a1.87,1.87,0,0,0,1.44,1.86C67,47.43,75.59,59,76,72.81a1.06,1.06,0,1,0,2.11,0C77.7,58.21,68.86,46.09,55.7,42.8Z" />
            <path class="cls-2" d="M13.25,15.79h1.38a.48.48,0,0,0,.46-.33,17.82,17.82,0,0,1,1.31-2.92.5.5,0,0,0-.44-.75H14.47a.5.5,0,0,0-.45.28,21.69,21.69,0,0,0-1.25,3.07A.5.5,0,0,0,13.25,15.79Z" />
            <path class="cls-2" d="M33.64,0h-.11A21.77,21.77,0,0,0,16.67,8a.5.5,0,0,0,.39.81h1.77a.48.48,0,0,0,.36-.16A19.44,19.44,0,0,1,33.53,2.3h.1A18.88,18.88,0,0,1,43.82,5.2a19.71,19.71,0,0,1,7.83,24.08,18.82,18.82,0,0,1-17.72,12h0a20.1,20.1,0,0,1-13.38-4.94A19.39,19.39,0,0,1,14,21.71a18.18,18.18,0,0,1,.17-2.35.49.49,0,0,0-.49-.57H12.38a.51.51,0,0,0-.5.44,22.27,22.27,0,0,0-.16,2.47,21.82,21.82,0,0,0,21.7,21.92h.11A21.86,21.86,0,0,0,54.59,16,21.6,21.6,0,0,0,33.64,0Z" />
        </g>
    </g>
</svg>