<?xml version="1.0" standalone="no"?><!DOCTYPE svg PUBLIC "-//W3C//DTD SVG 1.1//EN" "http://www.w3.org/Graphics/SVG/1.1/DTD/svg11.dtd"><svg t="1573458771370" class="icon" viewBox="0 0 1024 1024" version="1.1" xmlns="http://www.w3.org/2000/svg" p-id="8383" width="32" height="32" xmlns:xlink="http://www.w3.org/1999/xlink"><defs><style type="text/css"></style></defs><path d="M1014.289 129.308a42.667 42.667 0 0 1 5.802 45.142L715.025 829.61a42.667 42.667 0 0 1-63.147 16.954L417.211 682.78a42.667 42.667 0 0 1 48.84-69.973l193.024 134.741 245.902-528.1-758.102 189.014 156.815 104.25a42.667 42.667 0 0 0 45.056 1.336l235.719-137.074a42.667 42.667 0 1 1 42.922 73.757L391.668 587.833a128 128 0 0 1-135.253-4.04L19.131 425.985a42.667 42.667 0 0 1 13.312-76.942L971.11 115.058a42.667 42.667 0 0 1 43.207 14.25h-0.057z" p-id="8384" fill="#7f7f7f"></path><path d="M481.439 686.876a42.667 42.667 0 0 1 1.934 60.303L329.86 910.962a42.667 42.667 0 0 1-73.814-29.184V717.966a42.667 42.667 0 1 1 85.334 0v55.894l79.786-85.05a42.667 42.667 0 0 1 60.302-1.934z" p-id="8385" fill="#7f7f7f"></path></svg>