<?xml version="1.0" standalone="no"?><!DOCTYPE svg PUBLIC "-//W3C//DTD SVG 1.1//EN" "http://www.w3.org/Graphics/SVG/1.1/DTD/svg11.dtd"><svg t="1571988898676" class="icon" viewBox="0 0 1024 1024" version="1.1" xmlns="http://www.w3.org/2000/svg" p-id="18696" width="32" height="32" xmlns:xlink="http://www.w3.org/1999/xlink"><defs><style type="text/css"></style></defs><path d="M941.214 773.831a32.383 32.383 0 0 0-8.92-16.71L659.774 485.57c11.047-28.092 18.1-58.19 20.464-89.597 0.495-2.258 0.765-4.601 0.765-7.008l-0.205-2.164c0.216-4.737 0.331-9.5 0.331-14.292 0-170.725-138.406-309.124-309.133-309.124-44.025 0-85.89 9.22-123.794 25.81a32.383 32.383 0 0 0-17.797 8.479 308.304 308.304 0 0 0-10.78 5.828l3.723 3.724c-5.885 12.125-3.801 27.143 6.27 37.215L375.5 291.23l-83.828 84.479-146.21-147.112c-10.567-10.58-26.61-12.347-39.026-5.316l-3.413-3.195a307.715 307.715 0 0 0-6.179 11.452 32.32 32.32 0 0 0-6.025 12.416c-17.93 39.148-27.94 82.678-27.94 128.554 0 170.728 138.39 309.125 309.117 309.125 39.1 0 76.498-7.272 110.931-20.52L731.99 909.29a125.757 125.757 0 0 0 22.444 22.364l1.668 1.662a32.36 32.36 0 0 0 12.392 7.758c18.342 10.555 39.611 16.593 62.292 16.593 69.076 0 125.075-56 125.075-125.074 0-21.24-5.303-41.24-14.646-58.76zM830.85 893.44c-11.418 0-22.098-3.153-31.226-8.63l-20.844-20.77a60.987 60.987 0 0 1-2.28-4.14l-65.075-64.713c-0.139 0.44-0.287 0.877-0.42 1.32l-167.43-166.837c0.097-0.065 0.195-0.127 0.292-0.192l-47.081-47.08c-36.736 21.946-79.684 34.57-125.585 34.57-135.45 0-245.27-109.811-245.27-245.261 0-21.556 2.786-42.46 8.011-62.377l127.742 128.537c0.878 0.878 1.797 1.689 2.746 2.445a32.64 32.64 0 0 0 3.992 4.848c12.712 12.712 33.305 12.712 46.018 0L444.139 314.46c12.712-12.712 12.712-33.314 0-46.026a33.197 33.197 0 0 0-2.504-2.26 32.684 32.684 0 0 0-3.756-4.51L310.918 133.923c19.287-4.879 39.48-7.483 60.284-7.483 135.45 0 245.252 109.812 245.252 245.269 0 2.515-0.05 5.017-0.126 7.514a32.713 32.713 0 0 0-0.7 6.724l0.246 2.585c-1.771 26.097-7.62 51.076-16.92 74.301l4.073 2.802a32.682 32.682 0 0 0-5.098 4.167c-12.714 12.712-12.714 33.315 0 46.027l155.519 154.963 0.272-0.292 28.646 29.107 13.047 13-0.192 0.06 66.683 67.755a61.189 61.189 0 0 1 4.597 3.018l13.447 13.398a60.49 60.49 0 0 1 11.685 35.816c-0.002 33.564-27.222 60.786-60.783 60.786z" p-id="18697" fill="#666666"></path></svg>