<?xml version="1.0" standalone="no"?><!DOCTYPE svg PUBLIC "-//W3C//DTD SVG 1.1//EN" "http://www.w3.org/Graphics/SVG/1.1/DTD/svg11.dtd"><svg t="1533713347362" class="icon" style="" viewBox="0 0 1024 1024" version="1.1" xmlns="http://www.w3.org/2000/svg" p-id="1185" xmlns:xlink="http://www.w3.org/1999/xlink" width="64" height="64"><defs><style type="text/css"></style></defs><path d="M32 32h960v960H32z" fill="#FFFFFF" p-id="1186"></path><path d="M0 0v1024h1024V0H0z m992 992H32V32h960v960z" fill="" p-id="1187"></path><path d="M96 96h832v832H96z" fill="#FAD97F" p-id="1188"></path><path d="M705.6 299.2l-264 312-131.2-115.2-52.8 60.8 192 168 316.8-374.4z" fill="#F2385A" p-id="1189"></path><path d="M700.8 254.4L438.4 564.8l-131.2-113.6-94.4 108.8 241.6 211.2 358.4-424-112-92.8zM257.6 556.8l52.8-60.8 131.2 115.2 264-312 60.8 51.2-316.8 374.4-192-168z" fill="" p-id="1190"></path></svg>