<?xml version="1.0" standalone="no"?><!DOCTYPE svg PUBLIC "-//W3C//DTD SVG 1.1//EN" "http://www.w3.org/Graphics/SVG/1.1/DTD/svg11.dtd"><svg t="1542088862902" class="icon" style="" viewBox="0 0 1030 1024" version="1.1" xmlns="http://www.w3.org/2000/svg" p-id="11158" xmlns:xlink="http://www.w3.org/1999/xlink" width="16.09375" height="16"><defs><style type="text/css"></style></defs><path d="M475.276644 956.569896a295.067146 295.067146 0 0 1-386.276325-23.837937 286.854686 286.854686 0 0 1-24.055967-381.915728l-1.816916-1.816915L554.639532 62.937968a221.30036 221.30036 0 0 1 310.401916 0 215.340875 215.340875 0 0 1 0 306.986114L399.402235 830.403254a147.38822 147.38822 0 0 1-206.910385 0 143.536358 143.536358 0 0 1 0-204.65741l413.893447-409.314819 51.745766 51.164352-413.893448 409.31482a71.804517 71.804517 0 0 0 0 102.328704c28.561918 28.271212 74.856936 28.271212 103.418855 0l465.639213-460.479171a143.463681 143.463681 0 0 0 0-204.65741 147.533573 147.533573 0 0 0-206.910386 0L140.746084 574.581492a215.340875 215.340875 0 0 0 0 306.986114 221.30036 221.30036 0 0 0 310.401917 0l517.384978-511.643524 51.745766 51.164353-543.257862 537.2257-1.744239-1.744239z" p-id="11159" fill="#229cff"></path></svg>