<?xml version="1.0" encoding="utf-8"?>
<!-- Generator: Adobe Illustrator 23.0.0, SVG Export Plug-In . SVG Version: 6.00 Build 0)  -->
<svg version="1.1" id="图层_1" xmlns="http://www.w3.org/2000/svg" xmlns:xlink="http://www.w3.org/1999/xlink" x="0px" y="0px"
	 viewBox="0 0 1024 1024" style="enable-background:new 0 0 1024 1024;" xml:space="preserve">
<style type="text/css">
	.st0{fill:#FAD97F;stroke:#000000;stroke-miterlimit:10;}
	.st1{fill:none;stroke:#000000;stroke-width:45;stroke-linecap:round;stroke-linejoin:round;}
	.st2{fill:none;stroke:#F2385A;stroke-width:45;stroke-linecap:round;stroke-linejoin:round;}
</style>
<g>
	<path id="形状_9" class="st1" d="M194.1,655.5c13.7,17.4,28.3,34.6,44.1,51.6C360.5,838.5,548,951,829.8,971.4
		C947.9,980,988.1,875.7,996,803.9c17.9-164.5-199.1-238.3-249.3-209.5c-50.2,28.8-55.1,43.7-166.2,41.9
		C469.4,634.5,362,482.9,372.9,426.8s77.7-78.7,83.1-125.7c5.4-47-123.5-251.4-207.6-251.4S47.7,169.8,29.8,236.7
		C23,262.1,36,367.1,93.2,490.3"/>
	<path id="椭圆_24" class="st2" d="M525.4,100.2c208.6-68.8,433.5,44.7,502.3,253.3c0,0,0,0,0,0"/>
	<path id="椭圆_25" class="st2" d="M565.4,221.7C707,175,859.6,252,906.2,393.5"/>
</g>
</svg>
