<?xml version="1.0" standalone="no"?><!DOCTYPE svg PUBLIC "-//W3C//DTD SVG 1.1//EN" "http://www.w3.org/Graphics/SVG/1.1/DTD/svg11.dtd"><svg t="1543476226975" class="icon" style="" viewBox="0 0 1092 1024" version="1.1" xmlns="http://www.w3.org/2000/svg" p-id="8239" xmlns:xlink="http://www.w3.org/1999/xlink" width="34.125" height="32"><defs><style type="text/css"></style></defs><path d="M1087.010133 120.763733c3.515733 7.031467 5.256533 12.288 5.256534 15.7696 0 3.515733-1.7408 8.738133-5.256534 15.7696L433.220267 992.494933c-10.478933 10.513067-18.363733 15.735467-23.620267 15.735467-8.738133 0-17.5104-4.369067-26.282667-13.1072L13.175467 638.020267l-7.8848-7.850667C1.706667 623.138133 0 617.8816 0 614.4c0-1.7408 1.7408-6.144 5.256533-13.141333l5.256534-5.2224a5180.586667 5180.586667 0 0 1 115.5072-120.797867c10.513067-10.513067 17.5104-15.735467 21.026133-15.735467 6.997333 0 15.735467 5.2224 26.248533 15.735467l210.056534 204.8L908.458667 5.2224c3.515733-3.4816 8.772267-5.2224 15.7696-5.2224 5.256533 0 11.3664 1.7408 18.363733 5.256533l144.418133 115.5072z" p-id="8240" fill="#ffffff"></path></svg>