<?xml version="1.0" standalone="no"?><!DOCTYPE svg PUBLIC "-//W3C//DTD SVG 1.1//EN" "http://www.w3.org/Graphics/SVG/1.1/DTD/svg11.dtd"><svg t="1547634849409" class="icon" style="" viewBox="0 0 1024 1024" version="1.1" xmlns="http://www.w3.org/2000/svg" p-id="2327" xmlns:xlink="http://www.w3.org/1999/xlink" width="16" height="16"><defs><style type="text/css"></style></defs><path d="M741.239467 814.671644c-94.321778 5.7344-111.092622-31.357156-229.239467-31.379911-89.065244 0-127.112533 69.449956-182.044444 68.562489-66.605511-1.115022-135.896178-42.075022-174.353067-68.926578 2.412089-0.887467 4.596622-2.2528 6.576356-3.822933l193.649778-63.328711c12.925156-2.480356 25.281422-8.738133 35.316622-18.750578L765.041778 322.992356c26.646756-26.624 26.646756-69.791289 0-96.438044l-81.988267-81.988267c-26.624-26.646756-69.768533-26.646756-96.415289 0L212.741689 518.576356c-8.283022 8.260267-13.676089 18.204444-16.7936 28.694756-0.8192 1.661156-1.206044 3.504356-1.592889 5.370311-0.159289 0.705422-0.295822 1.410844-0.432356 2.139022C193.831822 555.599644 193.422222 556.327822 193.422222 557.169778l-63.601778 190.555022c-2.730667 3.663644-4.255289 7.873422-4.437333 12.356267-0.091022-0.091022-0.227556-0.2048-0.227556-0.2048s0.136533 0.273067 0.227556 0.477867c0 0.2048 0.045511 0.4096 0.045511 0.591644L125.155556 761.742222c0 1.001244 0.295822 1.888711 0.432356 2.844444 0.136533 0.864711 0.136533 1.661156 0.364089 2.503111 1.6384 6.530844 6.075733 11.901156 11.992178 14.859378 25.964089 40.459378 91.113244 122.197333 192.011378 117.236622 109.408711-5.370311 93.047467-62.327467 204.8-71.953067 80.236089-6.894933 82.557156 45.329067 204.231111 41.551644 86.152533-2.685156 159.857778-60.6208 159.857778-60.6208l0-71.2704C898.844444 736.915911 808.322844 810.575644 741.239467 814.671644zM597.265067 185.526044c17.749333-17.749333 46.535111-17.749333 64.284444 0l64.375467 55.296c17.749333 17.749333 17.749333 46.535111 0 64.284444L384.045511 647.099733l-120.035556-120.035556L597.265067 185.526044zM217.861689 620.157156l0.045511 0.045511 1.183289-3.618133-0.022756-0.022756 0.773689-2.366578 4.937956-15.291733 0.159289 0.045511 11.6736-34.952533 109.090133 109.112889c-2.230044 0.682667-4.5056 1.2288-6.508089 2.707911l-33.041067 10.808889 0.022756 0.091022-10.376533 3.322311-3.026489 0.978489-0.022756-0.022756-3.094756 0.978489 0.045511 0.045511-107.565511 35.180089L217.861689 620.157156z" p-id="2328" fill="#8a8a8a"></path></svg>