<?xml version="1.0" standalone="no"?><!DOCTYPE svg PUBLIC "-//W3C//DTD SVG 1.1//EN" "http://www.w3.org/Graphics/SVG/1.1/DTD/svg11.dtd"><svg t="1545026004284" class="icon" style="" viewBox="0 0 1024 1024" version="1.1" xmlns="http://www.w3.org/2000/svg" p-id="21264" xmlns:xlink="http://www.w3.org/1999/xlink" width="32" height="32"><defs><style type="text/css"></style></defs><path d="M787.2 800c0 25.6-19.2 38.4-38.4 38.4L281.6 838.4c-25.6 0-38.4-19.2-38.4-38.4l0-576c0-25.6 19.2-38.4 38.4-38.4l275.2 0c25.6 0 57.6 12.8 70.4 32l134.4 134.4c12.8 12.8 32 44.8 32 70.4L793.6 800zM729.6 787.2 729.6 454.4 550.4 454.4C531.2 454.4 512 441.6 512 416L512 236.8 294.4 236.8l0 550.4L729.6 787.2zM729.6 403.2c0-6.4-6.4-12.8-6.4-19.2L582.4 249.6c0 0-12.8-6.4-19.2-6.4l0 160L729.6 403.2z" p-id="21265" fill="#8a8a8a"></path></svg>