<?xml version="1.0" standalone="no"?><!DOCTYPE svg PUBLIC "-//W3C//DTD SVG 1.1//EN" "http://www.w3.org/Graphics/SVG/1.1/DTD/svg11.dtd"><svg t="1524710946003" class="icon" style="" viewBox="0 0 1024 1024" version="1.1" xmlns="http://www.w3.org/2000/svg" p-id="8357" xmlns:xlink="http://www.w3.org/1999/xlink" width="128" height="128"><defs><style type="text/css"></style></defs><path d="M542.406557 219.415192c-16.780225 11.007614-44.239661 11.006398-61.01867-0.003649l-143.060058-93.868795c-16.779009-11.010046-37.82727-5.318928-46.773236 12.645985l-34.149145 68.578042c-8.945967 17.964912 0.155688 32.66403 20.224818 32.66403l471.836197 0c20.06913 0 28.888601-14.554376 19.597202-32.34414l-36.148761-69.216605c-9.290183-17.789764-30.621844-23.337358-47.402069-12.329744L542.406557 219.415192zM835.39518 852.000257c0-9.483576 0-416.51716 0-425.61395s-5.906406-15.877723-15.495801-15.877723c-9.589395 0-282.721743 0-282.721743 0l0 474.018259c0 0 256.391044 0 265.689741 0C825.311962 884.528059 835.39518 865.770112 835.39518 852.000257zM223.817021 884.528059c8.444847 0 259.784551 0 259.784551 0L483.601573 410.509801c0 0-268.458065 0-278.600881 0s-15.487287 8.038599-15.487287 15.877723-0.008514 417.103422-0.008514 425.61395C189.50489 874.716079 208.366224 884.528059 223.817021 884.528059zM125.346922 274.402176c0 8.820687 0 94.046377 0 102.767326 0 8.720949 6.740795 15.876506 15.494585 15.876506s342.760066 0 342.760066 0L483.601573 258.52567c0 0-332.924976 0-342.760066 0S125.346922 265.582706 125.346922 274.402176zM882.335051 258.52567c-12.391776 0-345.157415 0-345.157415 0l0 134.520339c0 0 338.532169 0 346.491708 0 7.959539 0 15.488503-7.044873 15.488503-15.876506s0-96.680906 0-102.767326S894.726827 258.52567 882.335051 258.52567z" p-id="8358" fill="#707070"></path></svg>