<?xml version="1.0" standalone="no"?><!DOCTYPE svg PUBLIC "-//W3C//DTD SVG 1.1//EN" "http://www.w3.org/Graphics/SVG/1.1/DTD/svg11.dtd"><svg t="1548325931982" class="icon" style="" viewBox="0 0 1024 1024" version="1.1" xmlns="http://www.w3.org/2000/svg" p-id="7774" xmlns:xlink="http://www.w3.org/1999/xlink" width="64" height="64"><defs><style type="text/css"></style></defs><path d="M925.807444 879.635606a56.967322 56.967322 0 0 1-80.497303 0c-9.730443 8.845857-18.576301 18.576301-28.129827 28.129827a459.984589 459.984589 0 0 1-41.044779 36.268015H214.600502a459.984589 459.984589 0 0 1-41.044778-36.444932 455.030909 455.030909 0 0 1-112.34239-458.215418L16.807129 404.966894a56.967322 56.967322 0 0 1 80.497303-80.674221l28.129827 28.483662a34.14501 34.14501 0 0 0 48.298382-48.298382l-53.075145-53.075145a34.14501 34.14501 0 0 1 48.298382-48.298382l72.536031 72.359114a34.14501 34.14501 0 1 0 48.121465-48.298382l-30.960501-31.137418a455.030909 455.030909 0 0 1 689.976883 431.854762l65.105511 65.636263a34.14501 34.14501 0 1 1-48.298382 49.536801L902.277463 678.480807a34.14501 34.14501 0 0 0-48.298382 48.298382l72.359114 72.359114a56.967322 56.967322 0 0 1 0 80.320386z m0 0M47.76763 165.067239A34.14501 34.14501 0 1 0 81.91264 130.922229 34.14501 34.14501 0 0 0 47.76763 165.067239z m0 0" fill="#F2F2F2" p-id="7775"></path><path d="M96.773681 938.725934h728.190987a5.661349 5.661349 0 1 1 0 11.322697H96.773681a5.661349 5.661349 0 1 1 0-11.322697z m785.15831 0h34.145009a5.661349 5.661349 0 1 1 0 11.322697h-34.145009a5.661349 5.661349 0 1 1 0-11.322697zM511.998231 973.047861h34.14501a5.661349 5.661349 0 0 1 0 11.322697h-34.14501a5.661349 5.661349 0 0 1 0-11.322697zM73.951369 1012.677302h147.902737a5.661349 5.661349 0 1 1 0 11.322698H73.951369a5.661349 5.661349 0 1 1 0-11.322698z m272.983161 0h557.642856a5.661349 5.661349 0 1 1 0 11.322698H347.111447a5.661349 5.661349 0 1 1 0-11.322698zM603.110563 973.047861h147.902737a5.661349 5.661349 0 0 1 0 11.322697h-147.902737a5.661349 5.661349 0 0 1 0-11.322697zM210.531408 973.047861h255.999115a5.661349 5.661349 0 0 1 0 11.322697H210.531408a5.661349 5.661349 0 0 1 0-11.322697zM660.077885 56.970861A22.822312 22.822312 0 1 0 636.901738 34.148548a22.822312 22.822312 0 0 0 22.822313 22.822313z m0 11.322697a34.14501 34.14501 0 1 1 24.060732-9.90736 34.14501 34.14501 0 0 1-24.060732 9.90736zM831.510603 608.77545a22.822312 22.822312 0 1 0-22.822312-22.822312A22.822312 22.822312 0 0 0 831.510603 608.77545z m0 10.438112a34.14501 34.14501 0 1 1 34.14501-34.14501A34.14501 34.14501 0 0 1 831.510603 619.213562zM495.368019 256.002654a22.822312 22.822312 0 1 0-22.822313-22.822313A22.822312 22.822312 0 0 0 495.368019 256.002654z m0 11.322697a34.14501 34.14501 0 1 1 24.060732-10.084277 34.14501 34.14501 0 0 1-24.060732 10.084277zM182.047747 796.130711A22.822312 22.822312 0 1 0 159.225435 773.662233 22.822312 22.822312 0 0 0 182.047747 796.130711z m0 11.322698a34.14501 34.14501 0 1 1 24.060732-9.90736 34.14501 34.14501 0 0 1-24.060732 9.90736zM813.818888 147.906275h34.14501a5.661349 5.661349 0 1 1 0 11.322698H813.818888a5.661349 5.661349 0 1 1 0-11.322698z m0 0" fill="#E4E4E4" p-id="7776"></path><path d="M836.287366 136.583578v34.14501a5.661349 5.661349 0 0 1-11.322698 0V136.583578a5.661349 5.661349 0 1 1 11.322698 0z m0 0M375.595109 62.632209h34.145009a5.661349 5.661349 0 1 1 0 11.322698h-34.145009a5.661349 5.661349 0 1 1 0-11.322698z m0 0" fill="#E4E4E4" p-id="7777"></path><path d="M398.240504 51.132595v34.145009a5.661349 5.661349 0 0 1-11.322698 0V51.132595a5.661349 5.661349 0 0 1 11.322698 0z m0 0" fill="#E4E4E4" p-id="7778"></path><path d="M113.934644 625.759496h33.968093a5.661349 5.661349 0 1 1 0 11.322698H113.934644a5.661349 5.661349 0 0 1 0-11.322698z m0 0" fill="#E5E5E5" p-id="7779"></path><path d="M136.580039 614.436799v34.14501a5.661349 5.661349 0 1 1-11.322697 0v-34.14501a5.661349 5.661349 0 1 1 11.322697 0z m0 0M654.593453 284.486315h34.14501a5.661349 5.661349 0 1 1 0 11.322697H654.593453a5.661349 5.661349 0 0 1 0-11.322697z m0 0" fill="#E5E5E5" p-id="7780"></path><path d="M677.061931 272.9867v34.14501a5.661349 5.661349 0 0 1-11.322697 0v-34.14501a5.661349 5.661349 0 1 1 11.322697 0z m0 0" fill="#E5E5E5" p-id="7781"></path><path d="M352.772796 386.921344a22.822312 22.822312 0 0 0-22.822312 22.822313V819.129941a22.822312 22.822312 0 0 0 22.822312 22.822312h341.273182a22.822312 22.822312 0 0 0 22.822312-22.822312V409.56674a22.822312 22.822312 0 0 0-22.822312-22.822313z m0-11.322697h341.273182a34.14501 34.14501 0 0 1 34.14501 34.14501V819.129941a34.14501 34.14501 0 0 1-34.14501 34.14501H352.772796A34.14501 34.14501 0 0 1 318.450869 819.129941V409.56674a34.14501 34.14501 0 0 1 34.14501-34.14501z m0 0" fill="#CCCCCC" p-id="7782"></path><path d="M329.950484 409.56674h312.966438a34.14501 34.14501 0 0 1 34.145009 34.145009v398.240504H364.095494a34.14501 34.14501 0 0 1-34.14501-34.14501z m0 0" fill="#E5E5E5" p-id="7783"></path><path d="M278.821428 426.727703h341.273181A34.14501 34.14501 0 0 1 654.593453 459.988127v410.447787a34.14501 34.14501 0 0 1-34.145009 34.14501H278.821428a34.14501 34.14501 0 0 1-34.14501-34.14501V459.988127a34.14501 34.14501 0 0 1 34.14501-34.14501z m0 0" fill="#FFFFFF" p-id="7784"></path><path d="M278.821428 438.050401A22.822312 22.822312 0 0 0 255.999115 459.988127v410.447787a22.822312 22.822312 0 0 0 22.822313 22.822312h341.273181a22.822312 22.822312 0 0 0 22.822313-22.822312V459.988127a22.822312 22.822312 0 0 0-22.822313-22.822312z m0-11.322698h341.273181A34.14501 34.14501 0 0 1 654.593453 459.988127v410.447787a34.14501 34.14501 0 0 1-34.145009 34.14501H278.821428a34.14501 34.14501 0 0 1-34.14501-34.14501V459.988127a34.14501 34.14501 0 0 1 34.14501-34.14501z m0 0" fill="#CCCCCC" p-id="7785"></path><path d="M318.450869 506.34042h79.612718a5.661349 5.661349 0 0 1 0 11.322698H318.450869a5.661349 5.661349 0 0 1 0-11.322698z m176.91715 0h79.612717a5.661349 5.661349 0 0 1 0 11.322698H495.368019a5.661349 5.661349 0 1 1 0-11.322698z m-56.967322 79.612718h11.322697a5.661349 5.661349 0 1 1 0 11.322697h-11.322697a5.661349 5.661349 0 1 1 0-11.322697z m0 0" fill="#CCCCCC" p-id="7786"></path><path d="M307.305089 659.904506h278.821427v62.628671H307.305089zM312.966438 756.678187H580.288251a5.661349 5.661349 0 1 1 0 11.322698H312.966438a5.661349 5.661349 0 0 1 0-11.322698z m0 45.467707H580.288251a5.661349 5.661349 0 1 1 0 11.322698H312.966438a5.661349 5.661349 0 0 1 0-11.322698z m0 45.467708H580.288251a5.661349 5.661349 0 1 1 0 11.322697H312.966438a5.661349 5.661349 0 0 1 0-11.322697z m0 0" fill="#EEEEEE" p-id="7787"></path><path d="M168.602044 341.27672l-39.806359 35.38343 48.121465 5.484431a5.661349 5.661349 0 0 0 0-10.615029l-22.114644-2.299923 42.81395-38.391021H141.53372a5.661349 5.661349 0 1 0 0 11.322698z m-5.661349 134.987785h39.806358a5.661349 5.661349 0 1 0 0-11.322698h-12.914952l26.360656-26.891406H176.91715a5.661349 5.661349 0 0 0 0 11.322697h12.738034z m0 0" fill="#CCCCCC" p-id="7788"></path></svg>