<?xml version="1.0" standalone="no"?><!DOCTYPE svg PUBLIC "-//W3C//DTD SVG 1.1//EN" "http://www.w3.org/Graphics/SVG/1.1/DTD/svg11.dtd"><svg t="1538019535918" class="icon" style="" viewBox="0 0 1024 1024" version="1.1" xmlns="http://www.w3.org/2000/svg" p-id="4817" xmlns:xlink="http://www.w3.org/1999/xlink" width="16" height="16"><defs><style type="text/css"></style></defs><path d="M512 1024a512 512 0 1 1 512-512 512.585143 512.585143 0 0 1-512 512z m0-976.457143A464.457143 464.457143 0 1 0 976.457143 512 464.896 464.896 0 0 0 512 47.542857z m57.636571 258.998857a63.232 63.232 0 1 1 63.232-63.232 63.232 63.232 0 0 1-63.232 63.305143z m-159.341714 111.140572V402.285714c50.176-19.894857 127.451429-12.617143 179.2-30.902857h6.180572c-24.941714 126.500571-77.677714 241.590857-89.6 370.797714a14.299429 14.299429 0 0 0 6.180571 3.072c38.912 13.056 61.220571-77.348571 86.528-71.021714s-15.872 51.2-21.613714 58.514286c-22.710857 29.659429-66.048 80.091429-117.430857 80.457143a66.852571 66.852571 0 0 1-67.986286-83.382857 1562.953143 1562.953143 0 0 1 58.697143-213.248c15.104-54.674286 34.523429-100.315429-40.155429-98.816z" fill="#999999" p-id="4818"></path></svg>