<?xml version="1.0" standalone="no"?><!DOCTYPE svg PUBLIC "-//W3C//DTD SVG 1.1//EN" "http://www.w3.org/Graphics/SVG/1.1/DTD/svg11.dtd"><svg t="1535364040650" class="icon" style="" viewBox="0 0 1024 1024" version="1.1" xmlns="http://www.w3.org/2000/svg" p-id="1186" xmlns:xlink="http://www.w3.org/1999/xlink" width="16" height="16"><defs><style type="text/css"></style></defs><path d="M945.477308 72.112676H80.125196c-26.954116 0-48.075117 20.4159-48.075118 46.472614v551.261345c0 25.624038 20.848576 46.472613 46.472614 46.472614h424.679562l8.781721 7.002942 242.795368 193.983099V716.319249H945.477308c25.624038 0 46.472613-20.848576 46.472614-46.472614V118.58529c0-25.624038-20.848576-46.472613-46.472614-46.472614z" fill="#FAD97F" p-id="1187"></path><path d="M945.477308 40.062598H80.125196C35.255086 40.062598 0 75.317684 0 118.58529v551.261345c0 43.267606 35.255086 78.522692 78.522692 78.522692h413.446009l294.86072 235.568075V748.369327H945.477308c43.267606 0 78.522692-35.255086 78.522692-78.522692V118.58529c0-43.267606-35.255086-78.522692-78.522692-78.522692z m46.472614 629.784037c0 25.624038-20.848576 46.472613-46.472614 46.472614h-190.697965v200.986041l-242.811393-193.983099-8.765696-7.002942H78.522692c-25.624038 0-46.472613-20.848576-46.472614-46.472614V118.58529C32.050078 92.528576 53.17108 72.112676 80.125196 72.112676h865.352112c25.624038 0 46.472613 20.848576 46.472614 46.472614v551.261345z" fill="" p-id="1188"></path><path d="M273.226917 399.5523m-57.081189 0a57.081189 57.081189 0 1 0 114.162378 0 57.081189 57.081189 0 1 0-114.162378 0Z" fill="#FFFFFF" p-id="1189"></path><path d="M512 399.5523m-57.081189 0a57.081189 57.081189 0 1 0 114.162378 0 57.081189 57.081189 0 1 0-114.162378 0Z" fill="#FFFFFF" p-id="1190"></path><path d="M750.773083 399.5523m-57.081189 0a57.081189 57.081189 0 1 0 114.162378 0 57.081189 57.081189 0 1 0-114.162378 0Z" fill="#FFFFFF" p-id="1191"></path></svg>