<?xml version="1.0" standalone="no"?><!DOCTYPE svg PUBLIC "-//W3C//DTD SVG 1.1//EN" "http://www.w3.org/Graphics/SVG/1.1/DTD/svg11.dtd"><svg t="1564627824805" class="icon" viewBox="-342 -342 1707 1707" version="1.1" xmlns="http://www.w3.org/2000/svg" p-id="1121" xmlns:xlink="http://www.w3.org/1999/xlink" width="32" height="32"><defs><style type="text/css"></style></defs><path d="M952.79744 71.20512C910.88896 29.27104 854.53056 6.16448 794.15296 6.16448c-60.37632 0-117.64352 23.06048-161.41824 65.04064l-235.48032 235.456c-86.40256 86.40256-86.4512 229.93024 0 320.11264 8.61184 8.61184 19.75936 13.39648 31.40864 13.39648 11.62624 0 22.77376-4.78464 31.43296-13.39648 8.61184-8.6592 13.37216-19.80672 13.37216-31.43296 0.02432-11.62496-4.736-22.81984-13.37216-31.43296-26.432-26.40896-40.97664-60.928-40.97664-97.19168 0-36.26496 14.54464-70.78272 40.97664-97.19168l235.456-235.48032c26.4576-26.40896 60.9984-40.97792 97.21472-40.97792 36.2176 0 70.75968 14.56896 96.97792 40.76288 51.2384 54.6112 51.2384 140.17792 0.19072 194.57408L755.8784 462.45888c-17.89312 17.91744-17.89312 44.94848 0 62.86464 17.31968 17.248 45.5936 17.248 62.86464 0l134.05312-134.07744c86.40512-86.3552 86.40512-229.8816 0.00128-320.04096" p-id="1122" fill="#8a8a8a"></path><path d="M563.88736 397.25056c-17.94048 17.91744-17.94048 44.92416 0 62.8416 26.41024 26.432 41.00096 60.95104 41.00096 97.21472 0 36.26496-14.59072 70.75968-41.00096 97.16864L328.40832 890.0032c-26.43328 26.40896-60.95104 40.95232-97.216 40.95232s-70.7584-14.54336-97.16736-40.95232c-54.51648-54.5408-54.51648-139.8912 0-194.43072l134.03008-134.00576c17.91744-17.94176 17.91744-44.94848 0-62.86464-17.27104-17.27104-45.64096-17.22368-62.84032 0L71.18464 632.75392c-86.3552 86.35648-86.40256 229.88288 0 320.11264 41.88544 41.90976 98.24384 64.97024 158.6688 64.97024 60.30464 0 117.59616-23.06048 161.37216-64.97024l235.48032-235.52768c86.40384-86.3552 86.40384-229.90592 0-320.08832-17.22496-17.27104-45.54752-17.24672-62.81856 0" p-id="1123" fill="#8a8a8a"></path></svg>