<?xml version="1.0" standalone="no"?><!DOCTYPE svg PUBLIC "-//W3C//DTD SVG 1.1//EN" "http://www.w3.org/Graphics/SVG/1.1/DTD/svg11.dtd"><svg t="1571994551093" class="icon" viewBox="0 0 1024 1024" version="1.1" xmlns="http://www.w3.org/2000/svg" p-id="4413" width="32" height="32" xmlns:xlink="http://www.w3.org/1999/xlink"><defs><style type="text/css"></style></defs><path d="M512 81.454545C274.618182 81.454545 81.454545 274.618182 81.454545 512S274.618182 942.545455 512 942.545455s430.545455-193.163636 430.545455-430.545455S749.381818 81.454545 512 81.454545z m0-69.818181C787.921455 11.636364 1012.363636 236.078545 1012.363636 512S787.921455 1012.363636 512 1012.363636 11.636364 787.921455 11.636364 512 236.078545 11.636364 512 11.636364zM232.727273 521.821091a56.366545 56.366545 0 1 0 112.733091 0 56.366545 56.366545 0 0 0-112.733091 0z m230.167272 0a56.366545 56.366545 0 1 0 112.733091 0 56.366545 56.366545 0 0 0-112.733091 0z m230.167273 0a56.366545 56.366545 0 1 0 112.733091 0 56.366545 56.366545 0 0 0-112.733091 0z" p-id="4414" fill="#666666"></path></svg>