<?xml version="1.0" standalone="no"?><!DOCTYPE svg PUBLIC "-//W3C//DTD SVG 1.1//EN" "http://www.w3.org/Graphics/SVG/1.1/DTD/svg11.dtd"><svg t="1543475583336" class="icon" style="" viewBox="0 0 1024 1024" version="1.1" xmlns="http://www.w3.org/2000/svg" p-id="5719" xmlns:xlink="http://www.w3.org/1999/xlink" width="32" height="32"><defs><style type="text/css"></style></defs><path d="M299.03 566.698c-103.842 0-167.878 91.322-167.878 190.17 0 45.382-20.142 78.306-67.15 96.208 35.814 69.356 175.554 82.314 235.03 71.594 71.284-12.852 160.154-49.746 181.308-153.938 24.62-121.254-77.472-204.034-181.31-204.034z" p-id="5720" fill="#ffffff"></path><path d="M935.276 120.712c-25.91-25.896-59.928-34.584-89.84-10.7L495.196 418.2c-17.296-4.742-33.05-3.738-45.818 4.692L331.792 520.8c-3.222 3.222-3.09 8.608 0.132 11.828 0.998 1.002 2.128 1.58 3.394 1.96 1.284 0.068 2.528 0.118 3.798 0.206 0.038-0.004 0.072-0.02 0.108-0.028 95.876 6.864 182.068 73.508 178.6 179.012-0.032 1.01-0.058 2.014-0.108 3.032 0.246 1.696 1 3.328 2.298 4.63a8.248 8.248 0 0 0 11.562 0.088c0.036-0.036 0.074-0.054 0.11-0.088 0.126-0.126 0.212-0.274 0.328-0.4l100.914-114.684c8.432-12.748 9.44-28.48 4.71-45.75l308.338-350.094c23.902-29.896 15.208-63.896-10.7-89.8z" p-id="5721" fill="#ffffff"></path><path d="M331.774 520.818l0.018-0.018-0.016 0.014z" p-id="5722" fill="#ffffff"></path></svg>