<?xml version="1.0" standalone="no"?><!DOCTYPE svg PUBLIC "-//W3C//DTD SVG 1.1//EN" "http://www.w3.org/Graphics/SVG/1.1/DTD/svg11.dtd"><svg t="1524476076982" class="icon" style="" viewBox="0 0 1024 1024" version="1.1" xmlns="http://www.w3.org/2000/svg" p-id="8725" xmlns:xlink="http://www.w3.org/1999/xlink" width="32" height="32"><defs><style type="text/css"></style></defs><path d="M7.429 511.987c0 280.7 227.554 508.256 508.256 508.256s508.256-227.555 508.256-508.256-227.555-508.256-508.256-508.256-508.256 227.554-508.256 508.256zM474.691 344.336c-13.58 8.078-27.353 16.714-44.225 26.397-33.894-56.9-66.93-112.367-100.642-168.972 16.106-12.044 31.135-23.472 36.5-26.158 9.216-6.292 23.194-12.931 35.055 4.557 31.141 49.863 53.253 86.215 82.87 136.965 3.289 5.627 3.942 19.166-9.557 27.21zM698.605 812.69c-33.348-55.979-65.575-110.068-97.98-164.46 1.906-3.333 2.139-4.335 2.765-4.75 69.285-46.365 60.131-35.862 93.121 18.666 17.686 29.235 34.384 59.09 52.668 87.933 10.587 16.703 8.18 28.467-8.665 38.081-13.227 7.549-26.3 15.377-41.91 24.53zM276.143 305.953c1.69-27.273 14.177-50.693 24.912-66.714 5.001-7.463 10.581-15.058 18.825-26.339 19.678 32.961 37.45 62.715 55.216 92.467 9.654 16.185 19.086 32.507 29.008 48.515 9.83 15.86 19.82 29.418 7.515 50.87-5.575 9.716-0.848 29.935 5.945 41.404 36.978 62.427 75.139 124.217 115.239 184.667 7.18 10.82 25.344 14.365 38.457 21.226 4.852 2.538 11.918 3.641 14.324 7.606 31.044 51.109 61.423 102.622 96.609 161.838-25.537 0-45.466 2.862-64.261-0.541-55.103-9.967-100.255-40.05-138.235-79.44-100.147-103.856-171.6-223.86-198.827-367.393-3.442-18.138-5.996-56.087-4.727-68.165z" p-id="8726" data-spm-anchor-id="a313x.7781069.0.i0" class="selected" fill="#179b16"></path></svg>