<?xml version="1.0" standalone="no"?><!DOCTYPE svg PUBLIC "-//W3C//DTD SVG 1.1//EN" "http://www.w3.org/Graphics/SVG/1.1/DTD/svg11.dtd"><svg t="1535707711826" class="icon" style="" viewBox="0 0 1024 1024" version="1.1" xmlns="http://www.w3.org/2000/svg" p-id="6811" xmlns:xlink="http://www.w3.org/1999/xlink" width="128" height="128"><defs><style type="text/css"></style></defs><path d="M176 192h672v672H176z" fill="#FAD97F" p-id="6812"></path><path d="M611.2 385.6l-19.2-8v-304h72V32H348.8v41.6h72v304l-19.2 8c-4.8 3.2-128 57.6-145.6 190.4h499.2c-17.6-134.4-142.4-190.4-144-190.4z" fill="#F2385A" p-id="6813"></path><path d="M540.8 608H488v326.4l27.2 35.2 27.2-35.2h-1.6z" fill="#E8E8E8" p-id="6814"></path><path d="M625.6 356.8V105.6h72V0H316.8v105.6h72v251.2s-166.4 72-166.4 251.2h235.2v337.6l59.2 78.4 59.2-78.4V608h219.2c-3.2-179.2-169.6-251.2-169.6-251.2z m-110.4 612.8L488 934.4V608h52.8v326.4h1.6l-27.2 35.2zM256 576c17.6-132.8 139.2-187.2 145.6-190.4l19.2-8v-304h-72V32H664v41.6h-72v304l19.2 8c1.6 0 126.4 56 144 190.4H256z" fill="" p-id="6815"></path></svg>