<?xml version="1.0" standalone="no"?><!DOCTYPE svg PUBLIC "-//W3C//DTD SVG 1.1//EN" "http://www.w3.org/Graphics/SVG/1.1/DTD/svg11.dtd"><svg t="1543476194794" class="icon" style="" viewBox="0 0 1024 1024" version="1.1" xmlns="http://www.w3.org/2000/svg" p-id="7479" xmlns:xlink="http://www.w3.org/1999/xlink" width="32" height="32"><defs><style type="text/css"></style></defs><path d="M0 384h384L240.47 240.47C313 167.944 409.43 128 512 128s199 39.944 271.53 112.47C856.056 313 896 409.43 896 512s-39.944 199-112.47 271.53C711 856.056 614.57 896 512 896s-199-39.944-271.528-112.472c-6.056-6.054-11.86-12.292-17.456-18.668l-96.32 84.282C220.542 956.308 358.36 1024 512 1024c282.77 0 512-229.23 512-512S794.77 0 512 0C370.614 0 242.632 57.326 149.984 149.984L0 0v384z" fill="#ffffff" p-id="7480"></path></svg>