<?xml version="1.0" standalone="no"?><!DOCTYPE svg PUBLIC "-//W3C//DTD SVG 1.1//EN" "http://www.w3.org/Graphics/SVG/1.1/DTD/svg11.dtd"><svg t="1543594937569" class="icon" style="" viewBox="0 0 1024 1024" version="1.1" xmlns="http://www.w3.org/2000/svg" p-id="13823" xmlns:xlink="http://www.w3.org/1999/xlink" width="32" height="32"><defs><style type="text/css"></style></defs><path d="M937.871387 448.206068l-658.407488-0.408299 292.806789-295.77847c8.402367-8.485255 8.402367-22.242584 0-30.727839l-49.488111-49.978275c-8.402367-8.485255-22.024619-8.485255-30.426987 0L70.965262 496.874511c-8.402367 8.485255-8.402367 22.242584 0 30.727839l421.390329 425.560302c8.402367 8.485255 22.024619 8.485255 30.426987 0l49.488111-49.978275c8.402367-8.485255 8.402367-22.242584 0-30.727839L278.342356 575.61997l659.529031 0.212848c11.882632 0 21.515013-9.727549 21.515013-21.727861l0-84.170005C959.3864 457.93464 949.754019 448.206068 937.871387 448.206068z" p-id="13824" fill="#ffffff"></path></svg>