<svg t="1586317233065" class="icon" viewBox="0 0 1024 1024" version="1.1" xmlns="http://www.w3.org/2000/svg" p-id="13443" width="32" height="32"><path d="M880.512 760.917333l-64.426667-44.373333a42.496 42.496 0 0 1-15.488-58.197333c11.776-20.394667 38.058667-27.306667 58.154667-15.658667l143.701333 94.805333a41.856 41.856 0 0 1 19.754667 25.941334 42.410667 42.410667 0 0 1-4.181333 32.170666l-96.341334 159.104a42.496 42.496 0 0 1-58.197333 15.488 42.794667 42.794667 0 0 1-15.701333-58.154666l44.8-73.045334c-40.192 2.389333-114.218667 13.909333-170.154667 63.573334-40.661333 36.053333-57.002667 62.890667-57.002667 62.890666s-23.168 26.069333-53.418666 11.306667c-30.293333-14.762667-19.754667-48.170667-19.754667-48.170667s11.434667-37.290667 64.512-83.584c76.330667-66.645333 166.869333-81.92 223.744-84.096z m-27.989333-419.498666c0 46.933333-38.4 85.248-85.290667 85.248-46.890667 0-85.248-38.357333-85.248-85.248s38.4-85.248 85.248-85.248c46.933333 0 85.290667 38.357333 85.290667 85.248zM0 213.376a170.666667 170.666667 0 0 1 170.666667-170.666667L852.352 42.666667a170.666667 170.666667 0 0 1 170.666667 170.666666v341.674667a42.197333 42.197333 0 0 1-84.352 0V213.589333a85.333333 85.333333 0 0 0-85.333334-85.333333H170.581333a85.333333 85.333333 0 0 0-85.333333 85.333333v451.797334l195.413333-195.413334a85.333333 85.333333 0 0 1 120.704 0l139.946667 139.989334a42.24 42.24 0 1 1-59.648 59.690666l-110.506667-110.506666a42.666667 42.666667 0 0 0-60.330666 0l-225.578667 225.621333V810.666667a85.333333 85.333333 0 0 0 85.333333 85.333333h298.496a42.410667 42.410667 0 0 1 0 84.864H170.666667a170.666667 170.666667 0 0 1-170.666667-170.666667V213.333333z" fill="#52D037" p-id="13444"></path></svg>