<?xml version="1.0" standalone="no"?><!DOCTYPE svg PUBLIC "-//W3C//DTD SVG 1.1//EN" "http://www.w3.org/Graphics/SVG/1.1/DTD/svg11.dtd"><svg t="1524290818388" class="icon" style="" viewBox="0 0 1024 1024" version="1.1" xmlns="http://www.w3.org/2000/svg" p-id="5923" xmlns:xlink="http://www.w3.org/1999/xlink" width="32" height="32"><defs><style type="text/css"></style></defs><path d="M887.226392 5.24105c-87.398596-16.854274-172.222731 40.561834-189.071887 127.975784-3.756768 19.520862-3.628813 38.867705-0.475994 57.405871L311.872774 319.448113c-21.972486-42.368563-62.273291-74.73102-112.672329-84.445387-87.424187-16.838919-172.238086 40.592543-189.092359 128.006494-16.833801 87.413951 40.577188 172.238086 127.980903 189.087241 50.404156 9.714367 99.851207-5.35365 135.996023-36.523564l310.271158 262.989111c-9.801377 16.020005-17.120421 33.938867-20.877189 53.459729-16.849155 87.413951 40.561834 172.25344 127.975784 189.097478 87.429305 16.844037 172.279032-40.577188 189.128187-127.991139 16.833801-87.429305-40.592543-172.238086-128.021848-189.097478-50.39392-9.719485-99.835852 5.348532-135.970432 36.513328L306.319514 477.56505c9.806495-16.030241 17.105066-33.933749 20.866952-53.439256 3.761886-19.520862 3.633931-38.872824 0.48623-57.410989l385.790383-128.825408c21.967368 42.368563 62.268173 74.725902 112.651856 84.440269 87.439542 16.849155 172.279032-40.577188 189.112832-127.996257C1032.071805 106.91434 974.665934 22.085087 887.226392 5.24105zM147.53209 503.166349C87.096238 491.522416 47.399382 432.872819 59.053552 372.452321c11.638815-60.446089 70.29353-100.153182 130.724265-88.514366 60.430735 11.65417 100.12759 70.308885 88.473421 130.749856C266.612422 475.123663 207.962825 514.805164 147.53209 503.166349zM743.12312 752.965827c60.461444 11.65417 100.168536 70.303766 88.529721 130.724265-11.65417 60.446089-70.308885 100.153182-130.770328 88.499012-60.430735-11.65417-100.12759-70.29353-88.468302-130.739619C624.058144 781.023867 682.697504 741.327012 743.12312 752.965827zM966.292538 184.895425c-11.649052 60.446089-70.273057 100.148063-130.749856 88.493894-60.420498-11.633697-100.096881-70.29353-88.452948-130.729383 11.65417-60.430735 70.288412-100.137827 130.70891-88.483657C938.25497 65.815094 977.946708 124.464691 966.292538 184.895425z" p-id="5924" fill="#8a8a8a"></path></svg>