<svg id="shezhitixing.svg" xmlns="http://www.w3.org/2000/svg" width="60" height="60" viewBox="0 0 42 42">
  <defs>
    <style>
      .cls-1 {
        fill: #fad97f;
      }

      .cls-2, .cls-3, .cls-4 {
        fill: none;
        stroke-width: 2px;
        fill-rule: evenodd;
      }

      .cls-2, .cls-4 {
        stroke: #000;
      }

      .cls-2, .cls-3 {
        stroke-linecap: round;
      }

      .cls-3 {
        stroke: #f2385a;
      }
    </style>
  </defs>
  <rect id="圆角矩形_4" data-name="圆角矩形 4" x="19" width="4" height="6" rx="2" ry="2"/>
  <path id="圆角矩形_3_拷贝_3" data-name="圆角矩形 3 拷贝 3" class="cls-1" d="M24,6h0A14,14,0,0,1,38,20V34a2,2,0,0,1-2,2H12a2,2,0,0,1-2-2V20A14,14,0,0,1,24,6Z"/>
  <path id="圆角矩形_3" data-name="圆角矩形 3" class="cls-2" d="M484,378.945V387m-30,0V371.5A14.5,14.5,0,0,1,468.5,357h1A14.5,14.5,0,0,1,484,371.5v2.521" transform="translate(-448 -352)"/>
  <path id="圆角矩形_3_拷贝" data-name="圆角矩形 3 拷贝" class="cls-3" d="M450,366c0-4.387,4.283-9.675,8-11" transform="translate(-448 -352)"/>
  <path id="圆角矩形_3_拷贝_2" data-name="圆角矩形 3 拷贝 2" class="cls-3" d="M488,366c0-4.289-3.43-9.7-7.314-11" transform="translate(-448 -352)"/>
  <path id="椭圆_8" data-name="椭圆 8" class="cls-4" d="M473.448,388.032a4.948,4.948,0,1,1-9.9,0" transform="translate(-448 -352)"/>
  <rect id="圆角矩形_5" data-name="圆角矩形 5" y="35" width="42" height="2" rx="0.71" ry="0.71"/>
</svg>
