<?xml version="1.0" standalone="no"?><!DOCTYPE svg PUBLIC "-//W3C//DTD SVG 1.1//EN" "http://www.w3.org/Graphics/SVG/1.1/DTD/svg11.dtd"><svg t="1527058098234" class="icon" style="" viewBox="0 0 1050 1024" version="1.1" xmlns="http://www.w3.org/2000/svg" p-id="13002" xmlns:xlink="http://www.w3.org/1999/xlink" width="16.40625" height="16"><defs><style type="text/css"></style></defs><path d="M525.414644 65.960554l140.326127 291.268324 319.047938 45.401214-230.077725 232.799104 52.945629 322.308204L525.414644 811.025464 243.091842 957.899066l52.94563-322.362093-229.969949-232.799104 319.047939-45.401214 140.353071-291.268323m0-65.932802a76.117763 76.117763 0 0 0-68.681125 42.733724l-118.824542 248.130434-273.404226 40.928454a75.444154 75.444154 0 0 0-60.4631 49.900919 73.153885 73.153885 0 0 0 17.621599 75.444154l200.331173 201.247281-46.452043 279.089481a73.773605 73.773605 0 0 0 31.147657 72.74972 77.222481 77.222481 0 0 0 80.374969 4.338039l238.349638-124.967852 238.376582 124.967852a77.330258 77.330258 0 0 0 80.428857-4.338039 73.719716 73.719716 0 0 0 31.066825-72.74972L828.888754 658.520496l200.412006-201.247281a73.153885 73.153885 0 0 0 17.594655-75.444154 75.60582 75.60582 0 0 0-60.463101-49.900919L712.9742 290.999688 594.122713 42.869254A76.009985 76.009985 0 0 0 525.414644 0.000808z" fill="#8a8a8a" p-id="13003"></path></svg>