<?xml version="1.0" standalone="no"?><!DOCTYPE svg PUBLIC "-//W3C//DTD SVG 1.1//EN" "http://www.w3.org/Graphics/SVG/1.1/DTD/svg11.dtd"><svg t="1531297199562" class="icon" style="" viewBox="0 0 1024 1024" version="1.1" xmlns="http://www.w3.org/2000/svg" p-id="1470" xmlns:xlink="http://www.w3.org/1999/xlink" width="48" height="48"><defs><style type="text/css"></style></defs><path d="M842.4 32H183.2c-25.6 0-48 20.8-48 48v864c0 25.6 20.8 48 48 48h657.6c25.6 0 48-20.8 48-48V80c0-27.2-20.8-48-46.4-48z" fill="#E8E8E8" p-id="1471"></path><path d="M842.4 0H183.2c-43.2 0-80 35.2-80 80v864c0 43.2 35.2 80 80 80h657.6c43.2 0 80-35.2 80-80V80c0-44.8-35.2-80-78.4-80z m46.4 944c0 25.6-20.8 48-48 48H183.2c-25.6 0-48-20.8-48-48V80c0-25.6 20.8-48 48-48h657.6c25.6 0 48 20.8 48 48v864z" fill="" p-id="1472"></path><path d="M512.8 934.4m-24 0a24 24 0 1 0 48 0 24 24 0 1 0-48 0Z" fill="" p-id="1473"></path><path d="M208.8 99.2h608v744h-608z" fill="#9DE8F7" p-id="1474"></path><path d="M176.8 67.2v808h672v-808h-672z m640 776h-608v-744h608v744z" fill="" p-id="1475"></path><path d="M295.2 192H732v32H295.2zM295.2 280H732v32H295.2zM295.2 368H732v32H295.2zM295.2 456H732v32H295.2zM295.2 544H732v32H295.2zM295.2 632H732v32H295.2zM295.2 720H732v32H295.2z" fill="" p-id="1476"></path></svg>