<?xml version="1.0" encoding="utf-8"?>
<!-- Generator: Adobe Illustrator 23.0.0, SVG Export Plug-In . SVG Version: 6.00 Build 0)  -->
<svg version="1.1" id="图层_1" xmlns="http://www.w3.org/2000/svg" xmlns:xlink="http://www.w3.org/1999/xlink" x="0px" y="0px"
	 viewBox="0 0 1024 1024" style="enable-background:new 0 0 1024 1024;" xml:space="preserve">
<style type="text/css">
	.st0{fill:none;}
	.st1{fill:none;stroke:#E5E5E5;stroke-width:12;stroke-linecap:round;stroke-miterlimit:10;}
	.st2{fill:none;stroke:#F95863;stroke-width:60;stroke-linecap:round;stroke-linejoin:round;stroke-miterlimit:10;}
	.st3{opacity:0.5;fill:#52D037;}
	.st4{opacity:0.2;fill:#52D037;}
	.st5{fill:#52D037;}
	.st6{fill:#FFFFFF;}
</style>
<circle class="st0" cx="510.7" cy="511.1" r="448.5"/>
<ellipse transform="matrix(0.9732 -0.2298 0.2298 0.9732 -125.4682 59.7379)" class="st0" cx="193.8" cy="568.7" rx="4.5" ry="4.5"/>
<ellipse transform="matrix(0.7071 -0.7071 0.7071 0.7071 -19.5199 792.9902)" class="st0" cx="947.5" cy="420.1" rx="4.6" ry="4.6"/>
<ellipse transform="matrix(0.7071 -0.7071 0.7071 0.7071 -19.5199 792.9902)" class="st0" cx="947.5" cy="420.1" rx="4.6" ry="4.6"/>
<ellipse transform="matrix(0.7071 -0.7071 0.7071 0.7071 -19.5199 792.9902)" class="st0" cx="947.5" cy="420.1" rx="4.6" ry="4.6"/>
<path class="st0" d="M545.1,502.9c1.6-3.5,2.7-5.8,2.7-5.9l1.6-3.4l-0.5,0L545.1,502.9z"/>
<ellipse transform="matrix(0.7071 -0.7071 0.7071 0.7071 -19.5199 792.9902)" class="st0" cx="947.5" cy="420.1" rx="4.6" ry="4.6"/>
<g>
	<circle class="st0" cx="314.3" cy="600.2" r="7"/>
	<circle class="st0" cx="499.8" cy="229.6" r="10"/>
	<circle class="st0" cx="431" cy="824.7" r="12.2"/>
	<circle class="st0" cx="761.7" cy="198.6" r="10"/>
	<path class="st0" d="M948.7,421.1c-2.1,0-3.8,1.7-3.8,3.8c0,2.1,1.7,3.8,3.8,3.8c2.1,0,3.8-1.7,3.8-3.8
		C952.5,422.8,950.8,421.1,948.7,421.1z"/>
	<path class="st3" d="M769.7,615.4h-8v8h8c2.2,0,4-1.8,4-4v0C773.6,617.2,771.9,615.4,769.7,615.4z"/>
	<path class="st3" d="M745.6,615.4c-2.2,0-4,1.8-4,4v0c0,2.2,1.8,4,4,4h8v-8H745.6z"/>
	<path class="st3" d="M753.6,631.4c0,2.2,1.8,4,4,4h0c2.2,0,4-1.8,4-4v-8h-8V631.4z"/>
	<path class="st3" d="M761.6,607.3c0-2.2-1.8-4-4-4h0c-2.2,0-4,1.8-4,4v8h8V607.3z"/>
	<rect x="753.6" y="615.4" class="st3" width="8" height="8"/>
	<rect x="753.6" y="615.4" class="st3" width="8" height="8"/>
	<circle class="st3" cx="847.5" cy="736.5" r="9"/>
	<circle class="st4" cx="669.7" cy="772.3" r="9"/>
	<path class="st4" d="M431,804.5c-11.1,0-20.2,9-20.2,20.2c0,11.1,9,20.2,20.2,20.2c11.1,0,20.2-9,20.2-20.2
		C451.2,813.5,442.1,804.5,431,804.5z M431,836.8c-6.7,0-12.2-5.5-12.2-12.2s5.5-12.2,12.2-12.2s12.2,5.5,12.2,12.2
		S437.7,836.8,431,836.8z"/>
	<path class="st4" d="M723.5,291.6c2.2,0,4-1.8,4-4v0c0-2.2-1.8-4-4-4h-8v8H723.5z"/>
	<path class="st4" d="M699.4,291.6h8v-8h-8c-2.2,0-4,1.8-4,4v0C695.5,289.8,697.2,291.6,699.4,291.6z"/>
	<path class="st4" d="M715.5,275.6c0-2.2-1.8-4-4-4h0c-2.2,0-4,1.8-4,4v8h8V275.6z"/>
	<path class="st4" d="M707.5,299.6c0,2.2,1.8,4,4,4h0c2.2,0,4-1.8,4-4v-8h-8V299.6z"/>
	<rect x="707.5" y="283.6" class="st4" width="8" height="8"/>
	<rect x="707.5" y="283.6" class="st4" width="8" height="8"/>
	<path class="st3" d="M206.1,207.6c-2.2,0-4,1.8-4,4s1.8,4,4,4h23v-8H206.1z"/>
	<path class="st3" d="M260.1,207.6h-23v8h23c2.2,0,4-1.8,4-4S262.3,207.6,260.1,207.6z"/>
	<path class="st3" d="M237.1,184.6c0-2.2-1.8-4-4-4c-2.2,0-4,1.8-4,4v23h8V184.6z"/>
	<path class="st3" d="M229.1,238.6c0,2.2,1.8,4,4,4c2.2,0,4-1.8,4-4v-23h-8V238.6z"/>
	<rect x="229.1" y="207.6" class="st3" width="8" height="8"/>
	<rect x="229.1" y="207.6" class="st3" width="8" height="8"/>
	<circle class="st4" cx="375.8" cy="203" r="10"/>
	<path class="st3" d="M499.8,247.6c9.9,0,18-8.1,18-18c0-9.9-8.1-18-18-18c-9.9,0-18,8.1-18,18C481.8,239.5,489.9,247.6,499.8,247.6
		z M499.8,219.6c5.5,0,10,4.5,10,10c0,5.5-4.5,10-10,10s-10-4.5-10-10C489.8,224.1,494.3,219.6,499.8,219.6z"/>
	<path class="st3" d="M761.7,216.6c9.9,0,18-8.1,18-18s-8.1-18-18-18c-9.9,0-18,8.1-18,18S751.8,216.6,761.7,216.6z M761.7,188.6
		c5.5,0,10,4.5,10,10s-4.5,10-10,10s-10-4.5-10-10S756.2,188.6,761.7,188.6z"/>
	<path class="st3" d="M948.7,413.1c-6.5,0-11.8,5.3-11.8,11.8s5.3,11.8,11.8,11.8c6.5,0,11.8-5.3,11.8-11.8S955.2,413.1,948.7,413.1
		z M948.7,428.7c-2.1,0-3.8-1.7-3.8-3.8c0-2.1,1.7-3.8,3.8-3.8c2.1,0,3.8,1.7,3.8,3.8C952.5,427,950.8,428.7,948.7,428.7z"/>
	<polygon class="st3" points="190,329.9 178,339.5 163.9,333.3 170.3,347.6 159.7,358.9 176.2,359.9 183.3,370.8 188.1,357.1 
		201.9,353.4 190,345.6 	"/>
	<path class="st5" d="M107.4,756.1h-14v-14c0-2.7-2.2-5-5-5h-0.1c-2.7,0-5,2.2-5,5v14h-14c-2.7,0-5,2.2-5,5v0.1c0,2.7,2.2,5,5,5h14
		v14c0,2.7,2.2,5,5,5h0.1c2.7,0,5-2.2,5-5v-14h14c2.7,0,5-2.2,5-5V761C112.3,758.3,110.1,756.1,107.4,756.1z"/>
	<circle class="st3" cx="181" cy="652.2" r="13"/>
	<path class="st3" d="M314.3,587.2c-7.2,0-13,5.8-13,13c0,7.2,5.8,13,13,13s13-5.8,13-13C327.3,593.1,321.5,587.2,314.3,587.2z
		 M314.3,607.2c-3.9,0-7-3.1-7-7s3.1-7,7-7c3.9,0,7,3.1,7,7S318.2,607.2,314.3,607.2z"/>
	<polygon class="st6" points="406.3,361.6 349.3,361.6 349.3,696.2 617.1,696.2 617.1,654.2 406.3,654.2 	"/>
	<path class="st6" d="M648.9,588.6h2.7v16.2H470.8v-16.2h159.5l18-34.3l33.8-28.3V311.6H414.3v334.6h267.8V574l-10.2,8.5
		L648.9,588.6z M531.1,354.5h120.5v16.2H531.1V354.5z M531.1,403.5h120.5v16.2H531.1V403.5z M531.1,452.5h120.5v16.2H531.1V452.5z
		 M531.1,501.5h120.5v16.2H531.1V501.5z M449.3,354.5h49.3v65.3h-49.3V354.5z M449.3,452.4h49.3v65.3h-49.3V452.4z"/>
	<rect x="449.3" y="354.5" class="st5" width="49.3" height="65.3"/>
	<rect x="449.3" y="452.4" class="st5" width="49.3" height="65.3"/>
	<rect x="531.1" y="354.5" class="st6" width="120.5" height="16.2"/>
	<rect x="531.1" y="354.5" class="st4" width="120.5" height="16.2"/>
	<rect x="531.1" y="403.5" class="st6" width="120.5" height="16.2"/>
	<rect x="531.1" y="403.5" class="st4" width="120.5" height="16.2"/>
	<rect x="531.1" y="452.5" class="st6" width="120.5" height="16.2"/>
	<rect x="531.1" y="452.5" class="st4" width="120.5" height="16.2"/>
	<rect x="531.1" y="501.5" class="st6" width="120.5" height="16.2"/>
	<rect x="531.1" y="501.5" class="st4" width="120.5" height="16.2"/>
	<polygon class="st6" points="470.8,604.8 651.6,604.8 651.6,588.6 648.9,588.6 627.3,594.3 630.3,588.6 470.8,588.6 	"/>
	<polygon class="st4" points="470.8,604.8 651.6,604.8 651.6,588.6 648.9,588.6 627.3,594.3 630.3,588.6 470.8,588.6 	"/>
	<path class="st5" d="M798.7,452.5c-6.5-7.8-13.5-12.8-15.5-11.1c-0.1,0.1-0.1,0.2-0.2,0.3l-92.9,77.7V303.6H406.3v50h-65v350.6
		h283.8v-50h65v-86.9L807,469.6l0,0C808.6,467.6,805,460.1,798.7,452.5z M617.1,696.2H349.3V361.6h57v292.6h210.9V696.2z
		 M682.1,646.2H414.3V311.6h267.8v214.5l-33.8,28.3l-18,34.3l-3,5.7l21.6-5.7l23-6.1l10.2-8.5V646.2z M670.7,574.8l-10.1,1.5
		l2.6-10.5l-10.6,0.4l3.1-9.4l109.5-91.5l15,18L670.7,574.8z M785.3,479l-15-18l7.5-6.3l15,18L785.3,479z"/>
	
		<rect x="776.6" y="455.2" transform="matrix(0.7671 -0.6415 0.6415 0.7671 -117.4955 610.0856)" class="st6" width="9.8" height="23.4"/>
	<polygon class="st6" points="655.7,556.8 652.6,566.2 663.2,565.8 660.6,576.3 670.7,574.8 780.2,483.3 765.1,465.3 	"/>
</g>
</svg>
